<svg xmlns="http://www.w3.org/2000/svg" id="prefix__brands-and-logotypes_1_" width="26.79" height="26.874" data-name="brands-and-logotypes (1)" viewBox="0 0 26.79 26.874">
    <defs>
        <style>
            .prefix__cls-1{fill:#d8cdba}
        </style>
    </defs>
    <path id="prefix__Path_18007" d="M19.538 0H7.252A7.271 7.271 0 0 0 0 7.275V19.6a7.271 7.271 0 0 0 7.252 7.274h12.286A7.271 7.271 0 0 0 26.79 19.6V7.275A7.271 7.271 0 0 0 19.538 0zm-6.143 20.785a7.348 7.348 0 1 1 7.325-7.348 7.345 7.345 0 0 1-7.325 7.348zM20.9 7.822a2.171 2.171 0 1 1 2.16-2.171 2.17 2.17 0 0 1-2.16 2.171zm0 0" class="prefix__cls-1" data-name="Path 18007"/>
    <path id="prefix__Path_18008" d="M150.911 146.02a4.892 4.892 0 1 0 4.892 4.892 4.9 4.9 0 0 0-4.892-4.892zm0 0" class="prefix__cls-1" data-name="Path 18008" transform="translate(-137.516 -137.474)"/>
    <path id="prefix__Path_18009" d="M388.5 96.3a.5.5 0 1 0 .505.5.506.506 0 0 0-.505-.5zm0 0" class="prefix__cls-1" data-name="Path 18009" transform="translate(-367.55 -91.21)"/>
</svg>
