<svg xmlns="http://www.w3.org/2000/svg" width="28" height="28" fill="none" viewBox="0 0 28 28">
    <g clip-path="url(#prefix__clip0)">
        <path fill="#D8CDBA" d="M25.98 0H2.02C.903 0 0 .904 0 2.02v23.96C0 27.097.904 28 2.02 28h23.96c1.116 0 2.02-.904 2.02-2.02V2.02C28 .903 27.096 0 25.98 0zm-5.588 10.916c.006.137.01.276.01.415 0 4.246-3.233 9.143-9.143 9.143-1.815 0-3.504-.532-4.926-1.444.252.03.507.045.767.045 1.505 0 2.89-.514 3.99-1.376-1.406-.026-2.592-.955-3.001-2.232.196.038.397.058.604.058.293 0 .577-.039.847-.113-1.47-.294-2.578-1.594-2.578-3.15v-.04c.433.24.929.385 1.456.401-.863-.575-1.43-1.56-1.43-2.675 0-.588.159-1.14.435-1.615 1.585 1.945 3.953 3.223 6.624 3.358-.056-.236-.084-.48-.084-.733 0-1.774 1.44-3.213 3.214-3.213.924 0 1.759.39 2.345 1.015.733-.144 1.42-.412 2.04-.78-.24.75-.749 1.38-1.412 1.778.65-.078 1.27-.25 1.845-.506-.43.644-.975 1.21-1.603 1.664z"/>
    </g>
    <defs>
        <clipPath id="prefix__clip0">
            <rect width="28" height="28" fill="#fff" rx="8"/>
        </clipPath>
    </defs>
</svg>
