<svg xmlns="http://www.w3.org/2000/svg" width="26" height="28" fill="none" viewBox="0 0 26 28">
    <g fill="#D8CDBA" clip-path="url(#prefix__clip0)">
        <path d="M11.38 16.623L15.61 14l-4.23-2.623v5.246z"/>
        <path d="M24.125 0H1.875C.84 0 0 .904 0 2.02v23.96C0 27.097.84 28 1.875 28h22.25C25.16 28 26 27.096 26 25.98V2.02C26 .903 25.16 0 24.125 0zm-3.002 14.014s0 2.84-.334 4.209c-.188.75-.737 1.34-1.432 1.542-1.272.36-6.357.36-6.357.36s-5.072 0-6.357-.375c-.695-.201-1.244-.792-1.432-1.542C4.877 16.854 4.877 14 4.877 14s0-2.84.334-4.208c.188-.75.75-1.355 1.432-1.557 1.272-.36 6.357-.36 6.357-.36s5.085 0 6.357.375c.695.201 1.244.792 1.432 1.542.348 1.369.334 4.222.334 4.222z"/>
    </g>
    <defs>
        <clipPath id="prefix__clip0">
            <rect width="26" height="28" fill="#fff" rx="8"/>
        </clipPath>
    </defs>
</svg>
