<svg xmlns="http://www.w3.org/2000/svg" width="298.274" height="84.591" viewBox="0 0 298.274 84.591">
    <defs>
        <style>
            .cls-1{fill:#ff8000;stroke:#e1c14b;stroke-miterlimit:10;stroke-width:49.353px}.cls-2{fill:#fff}.cls-3{fill:#d8cdba}
        </style>
    </defs>
    <g id="Group_398" data-name="Group 398" transform="translate(-267.139 -38.465)">
        <g id="LOGO" transform="translate(481.296 38.465)">
            <g id="Group_1" data-name="Group 1">
                <path id="Line_1" d="M0 0" class="cls-1" data-name="Line 1" transform="translate(13.537 27.45)"/>
                <path id="Path_1" d="M501.693 1622.777c.561-.5 13.957-12.529 24.343-21.854a3.069 3.069 0 0 0 .567-4 2.965 2.965 0 0 0-4.332-.574l-21.139 17.715c-5.36 4.993-9.832 9.792-9.832 17.549v32.614a2.164 2.164 0 0 0 1.055 1.869 2.191 2.191 0 0 0 2.163.093l10.934-5.533a9.673 9.673 0 0 0 5.34-8.684v-21.393a4.48 4.48 0 0 0-3.938-4.533 4.323 4.323 0 0 0-4.693 3.872c-.013.146-.027.3-.027.447v20.472a1.977 1.977 0 0 1-1.916 1.976 1.982 1.982 0 0 1-2.042-1.976v-20.479a9.945 9.945 0 0 1 3.517-7.581z" class="cls-2" data-name="Path 1" transform="translate(-491.3 -1595.653)"/>
                <path id="Path_2" d="M1240.41 1622.777c-.561-.5-13.957-12.529-24.344-21.854a3.07 3.07 0 0 1-.568-4 2.966 2.966 0 0 1 4.332-.574l21.139 17.715c5.36 4.993 9.833 9.792 9.833 17.549v32.614a2.164 2.164 0 0 1-1.055 1.869 2.192 2.192 0 0 1-2.163.093l-10.933-5.533a9.673 9.673 0 0 1-5.34-8.684v-21.393a4.48 4.48 0 0 1 3.938-4.533 4.323 4.323 0 0 1 4.693 3.872c.013.146.026.3.026.447v20.472a1.977 1.977 0 0 0 1.916 1.976 1.982 1.982 0 0 0 2.042-1.976v-20.479a9.921 9.921 0 0 0-3.516-7.581z" class="cls-2" data-name="Path 2" transform="translate(-1166.685 -1595.653)"/>
                <path id="Rectangle_1" d="M0 0h8.237v8.237H0z" class="cls-3" data-name="Rectangle 1" transform="translate(31.245 42.93)"/>
                <path id="Rectangle_2" d="M0 0h8.237v8.237H0z" class="cls-3" data-name="Rectangle 2" transform="translate(44.582 42.93)"/>
                <path id="Rectangle_3" d="M0 0h8.237v8.237H0z" class="cls-3" data-name="Rectangle 3" transform="translate(31.245 29.873)"/>
                <path id="Rectangle_4" d="M0 0h8.237v8.237H0z" class="cls-3" data-name="Rectangle 4" transform="translate(44.582 29.873)"/>
            </g>
        </g>
        <g id="AIQ_final_logo" data-name="AIQ final logo" transform="translate(267.139 38.465)">
            <g id="Group_298" data-name="Group 298">
                <path id="Path_262" d="M202.436 174.77a27.976 27.976 0 0 1-3.93-7.3l-23.416-57.714h-7.4l-21.178 51.883q-3.1 7.76-6.057 11.043a14.935 14.935 0 0 1-7.316 4.476v1.791H153.8v-1.792a7.132 7.132 0 0 1-4.277-2.066 6.031 6.031 0 0 1-1.461-4.224 11.117 11.117 0 0 1 .256-2.25 17.924 17.924 0 0 1 .777-2.617l3.673-9.045h28.926l4.649 12.075q.172.413.459 1.148a11.959 11.959 0 0 1 .976 3.489 2.833 2.833 0 0 1-1.121 2.229 6.142 6.142 0 0 1-2.954 1.263v1.791h22.9l-.057-1.791a5.76 5.76 0 0 1-4.11-2.389zm-48.294-21.12l13.66-33.471 12.684 33.471z" class="cls-2" data-name="Path 262" transform="translate(-133.136 -109.756)"/>
                <path id="Path_263" d="M306.46 114.777a4.764 4.764 0 0 1 4.132 2.02q1.263 1.929 1.263 6.382v47.475q0 4.361-1.236 6.267a4.868 4.868 0 0 1-4.159 2.042v1.745h23.015v-1.79a4.817 4.817 0 0 1-4.163-1.951q-1.236-1.86-1.232-6.313v-47.475q0-4.545 1.263-6.428a4.808 4.808 0 0 1 4.132-1.974v-1.791H306.46z" class="cls-2" data-name="Path 263" transform="translate(-227.603 -111.516)"/>
                <path id="Path_264" d="M408.38 177.686q-1.148.115-2.812.115-12.683 0-18.8-7.943t-6.11-24.472q0-15.979 6.485-24.541t18.538-8.563q12.569 0 18.795 7.874t6.229 23.714q0 12.4-2.613 19.628a19.371 19.371 0 0 1-8.2 10.526l2.229 2.664c.221.232.08.048.379.378a41.569 41.569 0 0 0 15.726-13.843 33.3 33.3 0 0 0 1.691-34.022 38.4 38.4 0 0 0-11.161-12.787 32.024 32.024 0 0 0-10.216-4.89 43.821 43.821 0 0 0-12.4-1.768 42.6 42.6 0 0 0-13.116 2.021 34.8 34.8 0 0 0-11.046 5.785 38.69 38.69 0 0 0-10.82 12.489 32.365 32.365 0 0 0-3.528 15.149 36.009 36.009 0 0 0 3.386 15.634 32.388 32.388 0 0 0 9.757 12.007 34.672 34.672 0 0 0 11.1 5.762 46.586 46.586 0 0 0 13.69 1.859q1.894 0 3.528-.136a22.847 22.847 0 0 0 2.923-.431 65.778 65.778 0 0 1-1.63-2.553 12.869 12.869 0 0 1-2.004.344z" class="cls-2" data-name="Path 264" transform="translate(-260.941 -109.755)"/>
            </g>
            <path id="Path_265" d="M474.281 250.369a9.389 9.389 0 0 1-3.376 2.09 12.464 12.464 0 0 1-4.392.6 14.6 14.6 0 0 1-7.77-2.056q-3.365-2.056-7.647-7.488l-.061-.066-3.3-3.845-.831-.986a27.664 27.664 0 0 0-7.552-6.776 20.192 20.192 0 0 0-10.4-2.961 18.354 18.354 0 0 0-5.477.808 28.392 28.392 0 0 0-5.841 2.716l1.07 1.365a11.374 11.374 0 0 1 2.392-1.075 9 9 0 0 1 2.431-.412c2.488 0 5.169 1.2 7.718 3.178a28.337 28.337 0 0 1 6.946 8.344 72.254 72.254 0 0 0 4.513 6.588l.091.126a25.107 25.107 0 0 0 5.854 5.573 18.666 18.666 0 0 0 10.583 3.181 20.2 20.2 0 0 0 8.9-2.056 20.888 20.888 0 0 0 7.251-5.775z" class="cls-3" data-name="Path 265" transform="translate(-288.196 -174.682)"/>
        </g>
    </g>
</svg>
