<svg xmlns="http://www.w3.org/2000/svg" width="46.441" height="46.441" viewBox="0 0 46.441 46.441">
    <defs>
        <style>
            .prefix__cls-1{fill:#d8cdba}
        </style>
    </defs>
    <g id="prefix__interface-5">
        <g id="prefix__Group_2930" data-name="Group 2930" transform="translate(4.898)">
            <g id="prefix__Group_2929" data-name="Group 2929">
                <path id="prefix__Path_17999" d="M95.085.119a.907.907 0 0 0-.911.007L77.552 9.955a.907.907 0 1 0 .923 1.561L90.4 4.464l-22.213 23.05-11.049-3.38 14.419-8.526a.907.907 0 0 0-.923-1.562l-16.189 9.573a.907.907 0 0 0 .2 1.648L67.836 29.3l5.821 10.6a.215.215 0 0 0 .019.028.9.9 0 0 0 1.41.183l6.694-6.542 12.59 3.852a.907.907 0 0 0 1.172-.867V.907a.907.907 0 0 0-.457-.788zM73.707 29.863a.907.907 0 0 0-.161.516v5.549l-3.976-7.235 17.59-18.251zm1.653 7.445v-5.7l4.44 1.357zm18.369-1.98L75.9 29.875l17.828-25.73z" class="prefix__cls-1" data-name="Path 17999" transform="translate(-53.999)"/>
            </g>
        </g>
        <g id="prefix__Group_2932" data-name="Group 2932" transform="translate(4.898 31.261)">
            <g id="prefix__Group_2931" data-name="Group 2931">
                <path id="prefix__Path_18000" d="M64.015 344.914a.907.907 0 0 0-1.283 0l-8.468 8.467a.907.907 0 0 0 1.283 1.283l8.468-8.467a.907.907 0 0 0 0-1.283z" class="prefix__cls-1" data-name="Path 18000" transform="translate(-53.999 -344.648)"/>
            </g>
        </g>
        <g id="prefix__Group_2934" data-name="Group 2934" transform="translate(0 42.541)">
            <g id="prefix__Group_2933" data-name="Group 2933">
                <path id="prefix__Path_18001" d="M3.635 469.266a.907.907 0 0 0-1.283 0l-2.086 2.087a.907.907 0 1 0 1.283 1.283l2.086-2.086a.907.907 0 0 0 0-1.284z" class="prefix__cls-1" data-name="Path 18001" transform="translate(0 -469.001)"/>
            </g>
        </g>
        <g id="prefix__Group_2936" data-name="Group 2936" transform="translate(11.391 44.573)">
            <g id="prefix__Group_2935" data-name="Group 2935">
                <path id="prefix__Path_18002" d="M127.128 491.676a.906.906 0 1 0 .266.641.913.913 0 0 0-.266-.641z" class="prefix__cls-1" data-name="Path 18002" transform="translate(-125.58 -491.41)"/>
            </g>
        </g>
        <g id="prefix__Group_2938" data-name="Group 2938" transform="translate(13.654 37.824)">
            <g id="prefix__Group_2937" data-name="Group 2937">
                <path id="prefix__Path_18003" d="M156.568 417.272a.907.907 0 0 0-1.283 0l-4.485 4.485a.907.907 0 1 0 1.283 1.283l4.485-4.485a.907.907 0 0 0 0-1.283z" class="prefix__cls-1" data-name="Path 18003" transform="translate(-150.534 -417.006)"/>
            </g>
        </g>
        <g id="prefix__Group_2940" data-name="Group 2940" transform="translate(29.121 37.48)">
            <g id="prefix__Group_2939" data-name="Group 2939">
                <path id="prefix__Path_18004" d="M327.1 413.477a.907.907 0 0 0-1.283 0l-4.5 4.5a.907.907 0 1 0 1.283 1.283l4.5-4.5a.907.907 0 0 0 0-1.283z" class="prefix__cls-1" data-name="Path 18004" transform="translate(-321.053 -413.211)"/>
            </g>
        </g>
        <g id="prefix__Group_2942" data-name="Group 2942" transform="translate(24.167 12.098)">
            <g id="prefix__Group_2941" data-name="Group 2941">
                <path id="prefix__Path_18005" d="M267.978 133.646a.907.907 0 1 0 .266.642.914.914 0 0 0-.266-.642z" class="prefix__cls-1" data-name="Path 18005" transform="translate(-266.43 -133.38)"/>
            </g>
        </g>
    </g>
</svg>
