<svg xmlns="http://www.w3.org/2000/svg" width="152" height="44" fill="none" viewBox="0 0 152 44">
    <g clip-path="url(#clip0)">
        <g clip-path="url(#clip1)">
            <g clip-path="url(#clip2)">
                <path fill="#fff" d="M114.279 14.252l12.373-11.109c.577-.519.737-1.4.289-2.035-.516-.733-1.53-.852-2.202-.292L113.994 9.82c-2.725 2.538-4.998 4.978-4.998 8.92v16.578c0 .39.2.75.536.95.336.207.743.227 1.099.047l5.558-2.812c1.676-.845 2.714-2.538 2.714-4.414V18.215c0-1.16-.848-2.203-2.002-2.304-1.228-.109-2.263.79-2.385 1.968-.007.074-.013.152-.013.227v10.406c0 .543-.431.987-.974 1.004-.567.017-1.038-.438-1.038-1.004v-10.41c.003-1.486.655-2.89 1.788-3.85zM146.471 14.252L134.097 3.143c-.576-.519-.736-1.4-.288-2.035.516-.733 1.53-.852 2.202-.292l10.745 9.004c2.725 2.538 4.998 4.978 4.998 8.92v16.578c0 .39-.201.75-.536.95-.336.207-.743.227-1.1.047l-5.557-2.812c-1.676-.845-2.714-2.538-2.714-4.414V18.215c0-1.16.848-2.203 2.001-2.304 1.229-.109 2.263.79 2.386 1.968.006.074.013.152.013.227v10.406c0 .543.431.987.974 1.004.567.017 1.038-.438 1.038-1.004v-10.41c-.003-1.486-.651-2.89-1.788-3.85z"/>
                <path fill="#D8CDBA" d="M124.879 22.286H129.066V26.473000000000003H124.879zM131.656 22.286H135.84300000000002V26.473000000000003H131.656zM124.879 15.649H129.066V19.836H124.879zM131.656 15.649H135.84300000000002V19.836H131.656z"/>
            </g>
        </g>
        <g clip-path="url(#clip3)">
            <g fill="#fff" clip-path="url(#clip4)">
                <path fill-rule="evenodd" d="M35.365 33.51c-.651-.777-1.317-2.014-1.997-3.71L21.465.464h-3.762L6.938 26.836c-1.05 2.63-2.076 4.5-3.079 5.613-.99 1.105-2.283 1.897-3.718 2.275v.91h10.502v-.91c-.953-.156-1.678-.506-2.174-1.05-.513-.595-.78-1.363-.743-2.148.005-.384.048-.767.13-1.143.098-.453.23-.898.395-1.33l1.867-4.598h14.703l2.363 6.138c.059.14.136.334.233.583.331.856.496 1.447.496 1.774-.004.445-.214.864-.57 1.133-.434.343-.952.565-1.5.642v.91H37.48l-.03-.91c-.738-.032-1.434-.437-2.086-1.215zM10.816 22.775L17.76 5.762l6.448 17.013h-13.39z" clip-rule="evenodd"/>
                <path d="M40.223 2.121c.972.03 1.672.373 2.1 1.027.428.654.642 1.735.642 3.244v24.131c0 1.478-.21 2.54-.628 3.186-.419.646-1.124.992-2.114 1.038v.887H51.92v-.91c-.992-.031-1.697-.362-2.116-.992-.419-.63-.628-1.7-.626-3.21V6.393c0-1.54.213-2.63.641-3.267.428-.638 1.128-.973 2.1-1.004v-.91H40.224v.91zM75.082 34.993c-.39.038-.866.058-1.43.058-4.298 0-7.483-1.346-9.555-4.038-2.072-2.691-3.107-6.838-3.105-12.439 0-5.414 1.098-9.572 3.296-12.474 2.198-2.901 5.338-4.352 9.423-4.352 4.259 0 7.443 1.334 9.553 4.002 2.11 2.668 3.165 6.686 3.166 12.054 0 4.2-.443 7.527-1.329 9.977-.877 2.431-2.267 4.215-4.17 5.35l1.134 1.355c.112.117.04.024.193.192 3.442-1.82 6.106-4.166 7.993-7.037 3.437-5.17 3.767-11.807.86-17.293-1.383-2.563-3.321-4.784-5.673-6.5-1.57-1.13-3.328-1.972-5.193-2.485-2.047-.6-4.169-.903-6.302-.899-2.262-.008-4.511.339-6.666 1.027-2.034.634-3.936 1.63-5.615 2.94-2.47 1.93-4.303 4.046-5.5 6.349-1.215 2.383-1.83 5.026-1.793 7.7-.03 2.745.559 5.46 1.721 7.947 1.136 2.405 2.838 4.5 4.96 6.103 1.687 1.31 3.6 2.303 5.642 2.929 2.26.659 4.605.978 6.959.945.641 0 1.24-.023 1.793-.07.5-.04.996-.114 1.486-.219-.265-.395-.547-.832-.829-1.297-.335.085-.675.143-1.02.175z"/>
            </g>
            <path fill="#D8CDBA" d="M94.726 38.935c-.49.473-1.074.835-1.716 1.063-.72.234-1.476.337-2.232.304-1.388.028-2.757-.334-3.95-1.045-1.14-.697-2.435-1.965-3.886-3.806l-.03-.033-1.678-1.955-.423-.5c-1.056-1.376-2.357-2.544-3.839-3.445-1.592-.973-3.42-1.493-5.286-1.505-.943-.005-1.882.134-2.784.41-1.038.347-2.034.81-2.968 1.381l.543.694c.383-.228.791-.412 1.216-.546.4-.127.816-.197 1.235-.21 1.265 0 2.628.612 3.923 1.616 1.296 1.003 2.474 2.417 3.53 4.241.703 1.158 1.469 2.275 2.295 3.348l.046.064c.832 1.099 1.837 2.056 2.975 2.833 1.59 1.07 3.465 1.633 5.38 1.617 1.568.002 3.115-.356 4.523-1.045 1.433-.69 2.693-1.693 3.686-2.935l-.56-.546z"/>
        </g>
    </g>
    <defs>
        <clipPath id="clip0">
            <path fill="#fff" d="M0 0H151.612V42.998H0z" transform="translate(.14 .464)"/>
        </clipPath>
        <clipPath id="clip1">
            <path fill="#fff" d="M0 0H42.757V35.973H0z" transform="translate(108.996 .465)"/>
        </clipPath>
        <clipPath id="clip2">
            <path fill="#fff" d="M0 0H42.757V35.973H0z" transform="translate(108.996 .465)"/>
        </clipPath>
        <clipPath id="clip3">
            <path fill="#fff" d="M0 0H95.146V42.998H0z" transform="translate(.14 .464)"/>
        </clipPath>
        <clipPath id="clip4">
            <path fill="#fff" d="M0 0H92.942V35.942H0z" transform="translate(.14 .464)"/>
        </clipPath>
    </defs>
</svg>
