<svg xmlns="http://www.w3.org/2000/svg" width="66" height="66" fill="none" viewBox="0 0 66 66">
    <path fill="#585077" stroke="#fff" stroke-width=".25" d="M10.921 11.719h0c.215-.327.58-.523.97-.523h42.175c.392 0 .757.197.972.525l10.555 16.094.104-.069-.105.069c.287.436.247 1.01-.097 1.402l.094.083-.094-.083-9.874 11.278h0c-.23.262-.551.396-.875.396-.272 0-.544-.094-.765-.288h0c-.483-.422-.532-1.157-.109-1.64l-.094-.082.095.083 8.004-9.143.182-.207H44.383l-.027.09-8.7 29.702.215.117L46.58 47.29h0c.423-.483 1.158-.532 1.64-.109h0c.484.423.533 1.157.11 1.64l.093.082-.093-.082-14.499 16.558h0c-.22.252-.54.397-.874.397-.335 0-.654-.145-.874-.397l-.092.08.092-.08L18.466 49.83l-.094.083.094-.083c-.423-.482-.375-1.217.108-1.64.483-.422 1.217-.374 1.64.11l.094-.083-.094.082 9.832 11.226.214-.118-8.7-29.703-.027-.09H3.85l.182.207 3.488 3.983h0c.422.483.374 1.217-.109 1.64-.483.423-1.217.374-1.64-.108L.413 29.218h0c-.3-.344-.373-.83-.184-1.246.033-.073.072-.14.118-.203h0l.003-.004L10.92 11.719zM3.574 27.096l-.128.194h16.848l-.127-.194-8.174-12.463-.104-.16-.104.16-8.211 12.463zm10.7-13.576h-.23l.126.194 8.15 12.427.105.16.104-.16 8.15-12.427.127-.194H14.274zm18.788 1.117l-.104-.16-.105.16-8.17 12.46-.128.193H41.36l-.127-.194-8.17-12.46zm-.224 45.304l.12.41.12-.41 8.836-30.167.047-.16H23.955l.047.16 8.836 30.167zm10.57-33.768l.104.16.105-.16 8.17-12.46.128-.193H35.11l.127.194 8.17 12.46zm2.383.923l-.127.194h16.805l-.127-.194-8.171-12.46-.105-.159-.104.16-8.171 12.46z"/>
    <path fill="#D8CDBA" stroke="#fff" stroke-width=".25" d="M12.82 46.233l.106.171.106-.17c.692-1.115 1.634-2.057 2.748-2.749l.171-.106-.17-.106c-1.115-.692-2.057-1.634-2.749-2.748l-.106-.171-.106.17c-.692 1.115-1.634 2.057-2.748 2.749l-.171.106.17.106c1.115.692 2.057 1.634 2.749 2.748zm1.268-10.163c0 3.39 2.757 6.147 6.147 6.147.641 0 1.162.52 1.162 1.162 0 .642-.52 1.162-1.162 1.162-3.39 0-6.147 2.758-6.147 6.147 0 .642-.52 1.162-1.162 1.162-.642 0-1.162-.52-1.162-1.162 0-3.39-2.758-6.147-6.147-6.147-.641 0-1.162-.52-1.162-1.162 0-.642.52-1.162 1.162-1.162 3.39 0 6.147-2.757 6.147-6.147 0-.642.52-1.162 1.162-1.162.642 0 1.162.52 1.162 1.162zM59.373 7.802l.1.133.1-.133c.36-.48.786-.906 1.266-1.266l.133-.1-.133-.1c-.48-.36-.906-.787-1.266-1.267l-.1-.133-.1.133c-.36.48-.787.907-1.266 1.267l-.133.1.133.1c.48.36.906.786 1.266 1.266zm1.262-6.515c0 2.198 1.788 3.987 3.986 3.987.642 0 1.163.52 1.163 1.162 0 .641-.521 1.162-1.163 1.162-2.198 0-3.986 1.788-3.986 3.986 0 .642-.52 1.162-1.162 1.162-.642 0-1.162-.52-1.162-1.162 0-2.198-1.789-3.986-3.987-3.986-.641 0-1.162-.52-1.162-1.162 0-.642.52-1.162 1.162-1.162 2.198 0 3.987-1.789 3.987-3.987 0-.642.52-1.162 1.162-1.162.642 0 1.162.52 1.162 1.162z"/>
    <path fill="#585077" stroke="#fff" stroke-width=".25" d="M51.76 43.255h.001c.216.217.34.517.34.822 0 .305-.124.606-.34.822h0c-.216.216-.516.34-.822.34-.305 0-.605-.124-.821-.34h0c-.216-.216-.34-.517-.34-.822 0-.305.124-.605.34-.821.217-.218.516-.341.822-.341.305 0 .605.123.82.34z"/>
</svg>
