<svg xmlns="http://www.w3.org/2000/svg" width="61" height="61" fill="none" viewBox="0 0 61 61">
    <path fill="#D8CDBA" stroke="#fff" stroke-width=".25" d="M37.545 28.872v.125h4.265c.579 0 1.049.47 1.049 1.048 0 .58-.47 1.049-1.05 1.049h-4.264v2.457h2.508c.58 0 1.049.47 1.049 1.049s-.47 1.049-1.049 1.049h-2.508v.847c0 .58-.47 1.049-1.048 1.049h-.848v2.508c0 .579-.47 1.049-1.049 1.049s-1.048-.47-1.048-1.05v-2.507h-2.458v4.265c0 .578-.47 1.048-1.048 1.048-.58 0-1.049-.47-1.049-1.048v-4.265h-2.454v2.508c0 .579-.47 1.049-1.048 1.049-.58 0-1.05-.47-1.05-1.05v-2.507h-.85c-.58 0-1.049-.47-1.049-1.049v-.847h-2.505c-.578 0-1.048-.47-1.048-1.05 0-.578.47-1.048 1.049-1.048h2.504v-2.457h-4.261c-.58 0-1.049-.47-1.049-1.049s.47-1.049 1.049-1.049h4.261V26.544h-2.505c-.578 0-1.048-.47-1.048-1.049s.47-1.049 1.049-1.049h2.504v-.851c0-.579.47-1.048 1.049-1.048h.851V20.04c0-.579.47-1.049 1.049-1.049s1.048.47 1.048 1.05v2.504h2.454v-4.261c0-.58.47-1.05 1.049-1.05s1.048.47 1.048 1.05v4.261h2.458V20.04c0-.579.47-1.049 1.048-1.049.58 0 1.05.47 1.05 1.05v2.504h.847c.579 0 1.048.47 1.048 1.048v.851h2.508c.58 0 1.049.47 1.049 1.05 0 .578-.47 1.048-1.049 1.048h-2.508v2.329zm-12.902 6.45v.125h10.805V24.643H24.643v10.679z"/>
    <mask id="prefix__a" fill="#fff">
        <path d="M56.105 26.06c-1.789 0-3.306 1.185-3.808 2.811h-4.623l-.01-.148c-.049-.647-.612-1.13-1.258-1.083-.647.049-1.131.612-1.083 1.259.497 6.611-3.287 12.758-9.416 15.296-7.801 3.232-16.779-.486-20.012-8.288-3.233-7.801.485-16.778 8.288-20.012 6.128-2.539 13.152-.867 17.478 4.16.423.49 1.164.546 1.656.123.491-.422.546-1.163.124-1.655l-.1-.114 3.266-3.266c.568.3 1.205.46 1.866.46 1.066 0 2.067-.414 2.82-1.166.752-.753 1.166-1.754 1.166-2.818 0-1.065-.414-2.066-1.167-2.818-.752-.753-1.754-1.167-2.82-1.167-1.065 0-2.066.414-2.818 1.167-.753.752-1.168 1.753-1.168 2.818 0 .66.16 1.296.461 1.864l-3.265 3.265c-2.956-2.59-6.644-4.083-10.463-4.335V7.797c1.628-.503 2.814-2.021 2.814-3.812C34.033 1.788 32.244 0 30.045 0c-2.198 0-3.985 1.788-3.985 3.985 0 1.79 1.185 3.309 2.811 3.812v4.618c-1.883.128-3.77.559-5.587 1.312-1.827.757-3.46 1.788-4.872 3.025l-3.27-3.27c.302-.567.462-1.203.462-1.863 0-1.065-.415-2.066-1.168-2.818-.752-.753-1.753-1.167-2.817-1.167-1.065 0-2.066.414-2.818 1.167-.753.753-1.167 1.753-1.167 2.818 0 1.064.414 2.065 1.167 2.817.752.753 1.753 1.168 2.818 1.168.66 0 1.296-.16 1.864-.461l3.272 3.272c-2.541 2.913-4.068 6.6-4.332 10.456H7.797c-.503-1.626-2.021-2.811-3.812-2.811C1.788 26.06 0 27.848 0 30.045c0 2.2 1.788 3.988 3.985 3.988 1.79 0 3.31-1.186 3.812-2.814h4.622c.123 1.873.55 3.758 1.307 5.587.758 1.827 1.79 3.459 3.028 4.87l-3.271 3.271c-.568-.3-1.204-.46-1.864-.46-1.065 0-2.066.414-2.818 1.166-.753.753-1.167 1.755-1.167 2.82s.414 2.067 1.167 2.82c.752.752 1.753 1.166 2.818 1.166 1.064 0 2.065-.414 2.817-1.167.753-.752 1.168-1.754 1.168-2.819 0-.661-.16-1.298-.461-1.866l3.272-3.272c2.913 2.541 6.6 4.069 10.456 4.331v4.63c-1.626.503-2.811 2.02-2.811 3.809 0 2.2 1.787 3.988 3.985 3.988 2.199 0 3.988-1.789 3.988-3.988 0-1.79-1.187-3.307-2.815-3.809V47.67c1.874-.123 3.759-.549 5.587-1.306 1.817-.753 3.455-1.78 4.877-3.022l3.265 3.265c-.3.568-.46 1.205-.46 1.866 0 1.066.414 2.067 1.166 2.82.753.752 1.754 1.166 2.82 1.166 1.065 0 2.066-.414 2.82-1.167.752-.752 1.166-1.754 1.166-2.82 0-1.065-.414-2.066-1.167-2.818-.752-.753-1.754-1.168-2.82-1.168-.66 0-1.297.16-1.865.462l-3.264-3.264c2.524-2.88 4.077-6.543 4.333-10.465h4.62c.502 1.628 2.02 2.814 3.809 2.814 2.2 0 3.988-1.789 3.988-3.988 0-2.197-1.789-3.985-3.988-3.985zm-8.792-15.6c.31-.309.722-.479 1.16-.479.438 0 .85.17 1.16.48.309.31.48.72.48 1.158 0 .437-.171.848-.48 1.158-.31.309-.722.48-1.16.48-.438 0-.85-.171-1.16-.48-.309-.31-.48-.721-.48-1.158 0-.438.171-.849.48-1.158zM28.407 3.986c0-.903.735-1.638 1.638-1.638.905 0 1.64.735 1.64 1.638 0 .905-.735 1.64-1.64 1.64-.903 0-1.638-.735-1.638-1.64zm-15.63 8.792c-.31.309-.721.48-1.158.48-.438 0-.849-.171-1.158-.48-.31-.31-.48-.721-.48-1.158 0-.438.17-.849.48-1.158.31-.31.72-.48 1.158-.48.437 0 .848.17 1.158.48.309.31.48.72.48 1.158 0 .437-.171.848-.48 1.158zM3.985 31.685c-.903 0-1.638-.736-1.638-1.641 0-.903.735-1.638 1.638-1.638.905 0 1.64.735 1.64 1.638 0 .905-.735 1.641-1.64 1.641zm8.792 17.947c-.31.309-.721.48-1.158.48-.438 0-.849-.171-1.158-.48-.31-.31-.48-.722-.48-1.16 0-.438.17-.85.48-1.16.31-.309.72-.48 1.158-.48.437 0 .848.171 1.158.48.309.31.48.722.48 1.16 0 .438-.171.85-.48 1.16zm18.909 6.472c0 .905-.736 1.641-1.641 1.641-.903 0-1.638-.736-1.638-1.64 0-.904.735-1.638 1.638-1.638.905 0 1.641.734 1.641 1.637zm15.627-8.792c.31-.309.722-.48 1.16-.48.438 0 .85.171 1.16.48.309.31.48.722.48 1.16 0 .438-.171.85-.48 1.16-.31.309-.722.48-1.16.48-.438 0-.85-.171-1.16-.48-.309-.31-.48-.722-.48-1.16 0-.438.171-.85.48-1.16zm8.792-15.627c-.903 0-1.637-.736-1.637-1.641 0-.903.734-1.638 1.637-1.638.905 0 1.641.735 1.641 1.638 0 .905-.736 1.641-1.64 1.641z"/>
    </mask>
    <path fill="#585077" stroke="#fff" stroke-width=".5" d="M56.105 26.06c-1.789 0-3.306 1.185-3.808 2.811h-4.623l-.01-.148c-.049-.647-.612-1.13-1.258-1.083-.647.049-1.131.612-1.083 1.259.497 6.611-3.287 12.758-9.416 15.296-7.801 3.232-16.779-.486-20.012-8.288-3.233-7.801.485-16.778 8.288-20.012 6.128-2.539 13.152-.867 17.478 4.16.423.49 1.164.546 1.656.123.491-.422.546-1.163.124-1.655l-.1-.114 3.266-3.266c.568.3 1.205.46 1.866.46 1.066 0 2.067-.414 2.82-1.166.752-.753 1.166-1.754 1.166-2.818 0-1.065-.414-2.066-1.167-2.818-.752-.753-1.754-1.167-2.82-1.167-1.065 0-2.066.414-2.818 1.167-.753.752-1.168 1.753-1.168 2.818 0 .66.16 1.296.461 1.864l-3.265 3.265c-2.956-2.59-6.644-4.083-10.463-4.335V7.797c1.628-.503 2.814-2.021 2.814-3.812C34.033 1.788 32.244 0 30.045 0c-2.198 0-3.985 1.788-3.985 3.985 0 1.79 1.185 3.309 2.811 3.812v4.618c-1.883.128-3.77.559-5.587 1.312-1.827.757-3.46 1.788-4.872 3.025l-3.27-3.27c.302-.567.462-1.203.462-1.863 0-1.065-.415-2.066-1.168-2.818-.752-.753-1.753-1.167-2.817-1.167-1.065 0-2.066.414-2.818 1.167 0 0 0 0 0 0-.753.753-1.167 1.753-1.167 2.818 0 1.064.414 2.065 1.167 2.817.752.753 1.753 1.168 2.818 1.168.66 0 1.296-.16 1.864-.461l3.272 3.272c-2.541 2.913-4.068 6.6-4.332 10.456H7.797c-.503-1.626-2.021-2.811-3.812-2.811C1.788 26.06 0 27.848 0 30.045c0 2.2 1.788 3.988 3.985 3.988 1.79 0 3.31-1.186 3.812-2.814h4.622c.123 1.873.55 3.758 1.307 5.587.758 1.827 1.79 3.459 3.028 4.87l-3.271 3.271c-.568-.3-1.204-.46-1.864-.46-1.065 0-2.066.414-2.818 1.166-.753.753-1.167 1.755-1.167 2.82s.414 2.067 1.167 2.82c.752.752 1.753 1.166 2.818 1.166 1.064 0 2.065-.414 2.817-1.167.753-.752 1.168-1.754 1.168-2.819 0-.661-.16-1.298-.461-1.866l3.272-3.272c2.913 2.541 6.6 4.069 10.456 4.331v4.63c-1.626.503-2.811 2.02-2.811 3.809 0 2.2 1.787 3.988 3.985 3.988 2.199 0 3.988-1.789 3.988-3.988 0-1.79-1.187-3.307-2.815-3.809V47.67c1.874-.123 3.759-.549 5.587-1.306 1.817-.753 3.455-1.78 4.877-3.022l3.265 3.265c-.3.568-.46 1.205-.46 1.866 0 1.066.414 2.067 1.166 2.82.753.752 1.754 1.166 2.82 1.166 1.065 0 2.066-.414 2.82-1.167 0 0 0 0 0 0 .752-.752 1.166-1.754 1.166-2.82 0-1.065-.414-2.066-1.167-2.818-.752-.753-1.754-1.168-2.82-1.168-.66 0-1.297.16-1.865.462l-3.264-3.264c2.524-2.88 4.077-6.543 4.333-10.465h4.62c.502 1.628 2.02 2.814 3.809 2.814 2.2 0 3.988-1.789 3.988-3.988 0-2.197-1.789-3.985-3.988-3.985zm-8.792-15.6c.31-.309.722-.479 1.16-.479.438 0 .85.17 1.16.48 0 0 0 0 0 0 .309.31.48.72.48 1.158 0 .437-.171.848-.48 1.158-.31.309-.722.48-1.16.48-.438 0-.85-.171-1.16-.48-.309-.31-.48-.721-.48-1.158 0-.438.171-.849.48-1.158zM28.407 3.986c0-.903.735-1.638 1.638-1.638.905 0 1.64.735 1.64 1.638 0 .905-.735 1.64-1.64 1.64-.903 0-1.638-.735-1.638-1.64zm-15.63 8.792c-.31.309-.721.48-1.158.48-.438 0-.849-.171-1.158-.48-.31-.31-.48-.721-.48-1.158 0-.438.17-.849.48-1.158h0c.31-.31.72-.48 1.158-.48.437 0 .848.17 1.158.48.309.31.48.72.48 1.158 0 .437-.171.848-.48 1.158zM3.985 31.685c-.903 0-1.638-.736-1.638-1.641 0-.903.735-1.638 1.638-1.638.905 0 1.64.735 1.64 1.638 0 .905-.735 1.641-1.64 1.641zm8.792 17.947c-.31.309-.721.48-1.158.48-.438 0-.849-.171-1.158-.48 0 0 0 0 0 0-.31-.31-.48-.722-.48-1.16 0-.438.17-.85.48-1.16.31-.309.72-.48 1.158-.48.437 0 .848.171 1.158.48.309.31.48.722.48 1.16 0 .438-.171.85-.48 1.16zm18.909 6.472c0 .905-.736 1.641-1.641 1.641-.903 0-1.638-.736-1.638-1.64 0-.904.735-1.638 1.638-1.638.905 0 1.641.734 1.641 1.637zm15.627-8.792c.31-.309.722-.48 1.16-.48.438 0 .85.171 1.16.48.309.31.48.722.48 1.16 0 .438-.171.85-.48 1.16 0 0 0 0 0 0-.31.309-.722.48-1.16.48-.438 0-.85-.171-1.16-.48-.309-.31-.48-.722-.48-1.16 0-.438.171-.85.48-1.16zm8.792-15.627c-.903 0-1.637-.736-1.637-1.641 0-.903.734-1.638 1.637-1.638.905 0 1.641.735 1.641 1.638 0 .905-.736 1.641-1.64 1.641z" mask="url(#prefix__a)"/>
    <path fill="#585077" stroke="#fff" stroke-width=".25" d="M44.81 22.795h0c-.518.26-.727.89-.469 1.407h0l.004.007c.183.366.55.577.935.577l-.47-1.99zm0 0c.518-.259 1.148-.049 1.407.47h0c.26.518.05 1.15-.467 1.41l-.94-1.88z"/>
</svg>
