<svg xmlns="http://www.w3.org/2000/svg" width="35.7" height="35.7" viewBox="0 0 35.7 35.7">
    <defs>
        <style>
            .prefix__cls-1{fill:#352f4a;stroke:#f4eee4;stroke-width:.7px}
        </style>
    </defs>
    <g id="prefix__Group_1240" data-name="Group 1240" transform="translate(-336.65 -347.65)">
        <g id="prefix__Group_1222" data-name="Group 1222" transform="translate(337 348)">
            <g id="prefix__Group_1220" data-name="Group 1220" transform="translate(5.834 6.307)">
                <path id="prefix__Path_13857" d="M404.009 415.657a.572.572 0 01.207-.636l4.442-3.259a2 2 0 00-1.172-3.607l-5.51-.026a.572.572 0 01-.541-.393l-1.727-5.232a1.969 1.969 0 00-1.9-1.371 1.969 1.969 0 00-1.9 1.371l-.778 2.357a.712.712 0 001.353.447l.778-2.357a.573.573 0 011.088 0l1.727 5.232a2 2 0 001.887 1.371l5.51.026a.573.573 0 01.336 1.034l-4.442 3.259a2 2 0 00-.721 2.219l1.679 5.249a.573.573 0 01-.88.639l-4.473-3.219a2 2 0 00-2.333 0l-4.473 3.219a.573.573 0 01-.88-.639l1.678-5.25a2 2 0 00-.721-2.218l-4.442-3.259a.573.573 0 01.336-1.034l5.51-.026a.712.712 0 000-1.424l-5.51.026a2 2 0 00-1.172 3.607l4.442 3.259a.572.572 0 01.207.636l-1.678 5.25a1.969 1.969 0 00.729 2.224 1.969 1.969 0 002.34.005l4.473-3.219a.572.572 0 01.669 0l4.473 3.219a2 2 0 003.069-2.229z" class="prefix__cls-1" data-name="Path 13857" transform="translate(-386.146 -401.133)"/>
            </g>
            <g id="prefix__Group_1221" data-name="Group 1221">
                <path id="prefix__Path_13858" d="M354.5 348a17.5 17.5 0 100 35 .712.712 0 100-1.424 16.07 16.07 0 118.639-2.516.712.712 0 10.766 1.2A17.5 17.5 0 00354.5 348z" class="prefix__cls-1" data-name="Path 13858" transform="translate(-337 -348)"/>
            </g>
        </g>
        <g id="prefix__Group_1223" data-name="Group 1223" transform="translate(352.06 362.903)">
            <path id="prefix__Path_13859" d="M464.778 477.631h.009a1.34 1.34 0 10.395-.953.013.013 0 000 .009l-.009-.009a.481.481 0 01-.336.141.458.458 0 01-.417-.272.439.439 0 01-.045-.191.434.434 0 01.032-.159l.853-2.346a.407.407 0 01.209-.249.561.561 0 01.227-.054h1.8a.463.463 0 010 .926h-1.475l-.345.944a2.316 2.316 0 01.463-.045 2.266 2.266 0 11-2.265 2.265.44.44 0 01.132-.32.455.455 0 01.776.32z" class="prefix__cls-1" data-name="Path 13859" transform="translate(-463.87 -473.547)"/>
        </g>
    </g>
</svg>
