<svg xmlns="http://www.w3.org/2000/svg" width="13.25" height="9.65" viewBox="0 0 13.25 9.65">
    <defs>
        <style>
            .prefix__cls-1{fill:none}
        </style>
    </defs>
    <g id="prefix__Group_1285" data-name="Group 1285" transform="translate(-814.5 -913.797)">
        <path id="prefix__Path_13862" d="M948.308 993.76c-.251-2.537-1.343-4.416-2.584-4.416h-.017c-.84.012-1.6.882-2.068 2.227a4.325 4.325 0 01.859 2.242z" class="prefix__cls-1" data-name="Path 13862" transform="translate(-120.971 -70.768)"/>
        <path id="prefix__Path_13863" d="M823.742 1001.7c-1.284 0-2.4 1.564-2.644 3.67h4.069a4.57 4.57 0 01.67-1.971 2.55 2.55 0 00-2.095-1.699z" class="prefix__cls-1" data-name="Path 13863" transform="translate(-6.181 -82.34)"/>
        <path id="prefix__Path_13864" d="M951.324 923.111h.018a1.657 1.657 0 00-.017-3.314h-.018a1.657 1.657 0 00.017 3.314z" class="prefix__cls-1" data-name="Path 13864" transform="translate(-126.618 -5.62)"/>
        <path id="prefix__Path_13865" d="M904.013 962.617a1.168 1.168 0 10-1.168-1.168 1.169 1.169 0 001.168 1.168z" class="prefix__cls-1" data-name="Path 13865" transform="translate(-82.757 -43.543)"/>
        <path id="prefix__Path_13866" d="M841.748 938.27a1.428 1.428 0 10-1.428-1.428 1.43 1.43 0 001.428 1.428z" class="prefix__cls-1" data-name="Path 13866" transform="translate(-24.187 -20.25)"/>
        <path id="prefix__Path_13867" d="M836.128 933.029a1.808 1.808 0 10-1.808-1.808 1.81 1.81 0 001.808 1.808zm0-3.236a1.428 1.428 0 11-1.428 1.428 1.43 1.43 0 011.428-1.427z" data-name="Path 13867" transform="translate(-18.566 -14.629)"/>
        <path id="prefix__Path_13868" d="M818.987 999.747h-4.069c.245-2.107 1.36-3.67 2.644-3.67a2.55 2.55 0 012.1 1.7 2.928 2.928 0 01.261-.339 2.807 2.807 0 00-2.356-1.739c-1.548 0-2.828 1.776-3.043 4.223l-.018.206h4.45l.018-.205q.002-.09.013-.176z" data-name="Path 13868" transform="translate(0 -76.72)"/>
        <path id="prefix__Path_13869" d="M898.393 957.376a1.548 1.548 0 10-1.548-1.548 1.55 1.55 0 001.548 1.548zm0-2.716a1.168 1.168 0 11-1.168 1.168 1.169 1.169 0 011.168-1.168z" data-name="Path 13869" transform="translate(-77.137 -37.922)"/>
        <path id="prefix__Path_13870" d="M886.1 1028.561a4.568 4.568 0 00-.67 1.971h.382a4.4 4.4 0 01.473-1.536q-.085-.226-.185-.435z" data-name="Path 13870" transform="translate(-66.445 -107.505)"/>
        <path id="prefix__Path_13871" d="M901.485 1013.044a1.388 1.388 0 01.981.464q.064-.2.137-.4a1.7 1.7 0 00-1.118-.448 1.8 1.8 0 00-1.339.666q.1.183.18.38a1.508 1.508 0 011.159-.662z" data-name="Path 13871" transform="translate(-80.229 -92.614)"/>
        <path id="prefix__Path_13872" d="M937.313 1026.774h-.931v.034l1.319-.018a4.325 4.325 0 00-.859-2.242q-.076.217-.142.45a4.174 4.174 0 01.613 1.776z" data-name="Path 13872" transform="translate(-114.169 -103.746)"/>
        <path id="prefix__Path_13873" d="M887.74 1059.743h-1.24c.006.057.013.114.018.172l.018.206h1.182l.01-.165c.001-.071.006-.142.012-.213z" data-name="Path 13873" transform="translate(-65.909 -136.715)"/>
        <path id="prefix__Path_13874" d="M886.515 1059.9c-.005-.058-.011-.115-.018-.172h-1.6c-.007.057-.013.116-.018.174l-.018.205h1.672z" data-name="Path 13874" transform="translate(-65.911 -136.697)"/>
        <path id="prefix__Path_13875" d="M896.208 1023.972a2.93 2.93 0 01.256-.395q-.084-.2-.18-.38a2.928 2.928 0 00-.261.339q.1.208.185.436z" data-name="Path 13875" transform="translate(-76.367 -102.48)"/>
        <path id="prefix__Path_13876" d="M945.7 917.87h.023a2.022 2.022 0 10-.023 0zm-.017-3.694h.018a1.657 1.657 0 01.017 3.314h-.018a1.657 1.657 0 01-.017-3.314z" data-name="Path 13876" transform="translate(-120.997)"/>
        <path id="prefix__Path_13877" d="M935.9 988.513l-.016-.2c-.231-2.885-1.482-4.967-2.98-4.967h-.022c-.97.013-1.823.9-2.357 2.3a2.514 2.514 0 01.294.3c.471-1.345 1.229-2.215 2.068-2.227h.017c1.241 0 2.333 1.879 2.584 4.416l-3.81.052c.006.052.012.1.016.157l.018.206h-1.757v.039z" data-name="Path 13877" transform="translate(-108.149 -65.148)"/>
        <path id="prefix__Path_13878" d="M937.106 1020.5q.066-.233.142-.45a2.5 2.5 0 00-.294-.3q-.073.191-.137.4a2.46 2.46 0 01.289.35z" data-name="Path 13878" transform="translate(-114.579 -99.246)"/>
        <path id="prefix__Path_13879" d="M931.73 1059.916c0-.053-.01-.105-.016-.157l-1.319.018v-.034h-.381c-.006.071-.012.142-.016.214l-.01.165h1.757z" data-name="Path 13879" transform="translate(-108.186 -136.715)"/>
    </g>
</svg>
