<svg xmlns="http://www.w3.org/2000/svg" width="20" height="16" fill="none" viewBox="0 0 20 16">
    <path fill="#585077" fill-rule="evenodd" d="M18.125.5H1.875C.84.5 0 1.34 0 2.375v11.25C0 14.66.84 15.5 1.875 15.5h16.25c1.035 0 1.875-.84 1.875-1.875V2.375C20 1.34 19.16.5 18.125.5zM1.875 1.75h16.25c.344 0 .625.281.625.625v1.617c-.855.723-2.078 1.719-5.883 4.738-.66.524-1.96 1.786-2.867 1.77-.906.016-2.21-1.246-2.867-1.77C3.328 5.71 2.105 4.715 1.25 3.992V2.375c0-.344.281-.625.625-.625zm16.25 12.5H1.875c-.344 0-.625-.281-.625-.625V5.617c.89.73 2.297 1.86 5.105 4.09.801.64 2.215 2.05 3.645 2.043 1.422.012 2.824-1.387 3.645-2.043 2.808-2.23 4.214-3.36 5.105-4.09v8.008c0 .344-.281.625-.625.625z" clip-rule="evenodd"/>
</svg>
