<svg xmlns="http://www.w3.org/2000/svg" width="20" height="20" fill="none" viewBox="0 0 20 20">
    <path fill="#585077" fill-rule="evenodd" d="M18.303 13.04l-4.023-1.726c-.475-.203-1.027-.068-1.355.33l-1.637 2C8.713 12.38 6.63 10.296 5.364 7.722l2-1.637c.399-.329.533-.88.33-1.355L5.97.702C5.746.186 5.187-.096 4.639.03L.9.895C.37 1.014-.003 1.483 0 2.023c0 9.402 7.62 16.982 16.982 16.982.542.001 1.012-.374 1.132-.902l.861-3.738c.126-.546-.157-1.104-.672-1.325zm-1.344 4.777C8.255 17.806 1.2 10.753 1.192 2.05l3.697-.854 1.707 3.987L3.894 7.39c1.796 3.831 3.879 5.92 7.724 7.725l2.209-2.702 3.986 1.707-.854 3.697z" clip-rule="evenodd"/>
</svg>
