<svg xmlns="http://www.w3.org/2000/svg" width="20" height="20" fill="none" viewBox="0 0 20 20">
    <path fill="#585077" fill-rule="evenodd" d="M10 1.25c2.414 0 4.375 1.96 4.375 4.375C14.375 8.039 12.415 10 10 10c-2.414 0-4.375-1.96-4.375-4.375 0-2.414 1.96-4.375 4.375-4.375m5 12.5c2.066 0 3.75 1.684 3.75 3.75v1.25H1.25V17.5c0-2.066 1.684-3.75 3.75-3.75 3.32 0 2.629.625 5 .625 2.379 0 1.676-.625 5-.625M10 0C6.895 0 4.375 2.52 4.375 5.625S6.895 11.25 10 11.25s5.625-2.52 5.625-5.625S13.105 0 10 0zm5 12.5c-3.61 0-2.773.625-5 .625-2.219 0-1.395-.625-5-.625-2.762 0-5 2.238-5 5v1.25C0 19.441.559 20 1.25 20h17.5c.691 0 1.25-.559 1.25-1.25V17.5c0-2.762-2.238-5-5-5z" clip-rule="evenodd"/>
</svg>
