<svg xmlns="http://www.w3.org/2000/svg" width="26" height="26" fill="none" viewBox="0 0 26 26">
    <g clip-path="url(#clip0)">
        <g clip-path="url(#clip1)">
            <path fill="#B3B3B3" fill-rule="evenodd" d="M23.94 0H2.394C1.074 0 0 1.074 0 2.394V23.94c0 1.32 1.074 2.394 2.394 2.394H23.94c1.32 0 2.394-1.074 2.394-2.394V2.394C26.334 1.074 25.26 0 23.94 0zm-4.964 17.284c.234.234.234.613 0 .847l-.846.846c-.234.233-.613.233-.847 0l-4.117-4.117-4.117 4.117c-.233.233-.612.233-.846 0l-.846-.846c-.234-.234-.234-.613 0-.847l4.117-4.117L7.357 9.05c-.234-.234-.234-.613 0-.846l.846-.847c.234-.233.613-.233.846 0l4.117 4.117 4.117-4.117c.234-.233.613-.233.847 0l.846.847c.234.233.234.612 0 .846l-4.117 4.117 4.117 4.117z" clip-rule="evenodd"/>
        </g>
    </g>
    <defs>
        <clipPath id="clip0">
            <path fill="#fff" d="M0 0H26V26H0z"/>
        </clipPath>
        <clipPath id="clip1">
            <path fill="#fff" d="M0 0H26.334V26.334H0z"/>
        </clipPath>
    </defs>
</svg>
