<svg xmlns="http://www.w3.org/2000/svg" id="success-2" width="177" height="177" viewBox="0 0 177 177">
    <defs>
        <style>
            .cls-1{fill:#d8cdba}.cls-2{fill:#fff}.cls-3{fill:#574f76}.cls-4{fill:#585077}
        </style>
    </defs>
    <path id="Path_10703" d="M184.927 16.426c-37.26 8.9-66.259 43.42-66.259 82.822s29 73.921 66.26 82.822c37.259-8.9 66.259-43.42 66.259-82.822s-29-73.922-66.26-82.822zm0 0" class="cls-1" data-name="Path 10703" transform="translate(-77.644 -10.747)"/>
    <path id="Path_10704" d="M215.93 179.038a10.367 10.367 0 0 1 0 14.665l-41.484 41.484a10.367 10.367 0 0 1-14.665 0l-20.742-20.742a10.37 10.37 0 0 1 14.661-14.664l13.41 13.41 34.152-34.152a10.367 10.367 0 0 1 14.668-.001zm0 0" class="cls-2" data-name="Path 10704" transform="translate(-88.984 -115.156)"/>
    <path id="Path_10705" d="M169.87 54.5A91.983 91.983 0 0 0 122.5 7.13a84.612 84.612 0 0 0-67.993 0A91.983 91.983 0 0 0 7.13 54.5a84.612 84.612 0 0 0 0 67.993A91.983 91.983 0 0 0 54.5 169.87a84.612 84.612 0 0 0 67.993 0 91.983 91.983 0 0 0 47.377-47.37 84.612 84.612 0 0 0 0-67.993zM88.5 170.086c-44.224 0-81.586-37.362-81.586-81.586S44.276 6.914 88.5 6.914s81.586 37.362 81.586 81.586-37.362 81.586-81.586 81.586zm0 0" class="cls-3" data-name="Path 10705"/>
    <path id="Path_10706" d="M184.384 88.22a75.628 75.628 0 0 0-39.334-39.334A71.464 71.464 0 0 0 116.635 43c-13.3 0-27.157 4.54-40.083 13.13a3.457 3.457 0 1 0 3.827 5.758c11.788-7.834 24.325-11.974 36.256-11.974 36.166 0 66.721 30.554 66.721 66.721s-30.554 66.721-66.721 66.721-66.721-30.556-66.721-66.721c0-11.928 4.14-24.465 11.971-36.257a3.457 3.457 0 0 0-5.759-3.824C47.539 89.481 43 103.341 43 116.635a71.486 71.486 0 0 0 5.885 28.415 75.628 75.628 0 0 0 39.335 39.333 71.534 71.534 0 0 0 56.83 0 75.628 75.628 0 0 0 39.333-39.335 71.534 71.534 0 0 0 0-56.83zm0 0" class="cls-3" data-name="Path 10706" transform="translate(-28.135 -28.135)"/>
    <path id="Path_10707" d="M130.051 210.347l20.742 20.742a13.823 13.823 0 0 0 19.554 0l41.483-41.483a13.827 13.827 0 1 0-19.552-19.555l-31.708 31.708-10.965-10.965a13.827 13.827 0 1 0-19.554 19.554zm4.888-14.665a6.912 6.912 0 0 1 9.777 0l15.854 15.855 36.6-36.6a6.913 6.913 0 1 1 9.777 9.777L165.459 226.2a6.912 6.912 0 0 1-9.777 0l-20.742-20.743a6.91 6.91 0 0 1 0-9.776zm0 0" class="cls-4" data-name="Path 10707" transform="translate(-82.441 -108.613)"/>
    <path id="Path_10708" d="M108.457 105a3.457 3.457 0 1 0 3.457 3.457 3.459 3.459 0 0 0-3.457-3.457zm0 0" class="cls-3" data-name="Path 10708" transform="translate(-68.701 -68.701)"/>
</svg>
