<svg xmlns="http://www.w3.org/2000/svg" width="47" height="47" fill="none" viewBox="0 0 47 47">
    <path fill="green" d="M28.247 42.809c-.387.096-.782.182-1.174.254-1.026.19-1.704 1.177-1.514 2.203.094.505.38.925.77 1.2.401.282.912.41 1.432.313.467-.087.938-.189 1.4-.304 1.012-.252 1.629-1.277 1.376-2.29-.252-1.012-1.276-1.629-2.29-1.376zM42.22 17.483c.133.4.385.725.704.95.474.333 1.093.445 1.684.25.99-.33 1.527-1.397 1.2-2.388-.15-.451-.316-.904-.492-1.345-.388-.969-1.486-1.44-2.456-1.053-.968.387-1.44 1.487-1.052 2.456.148.37.287.751.412 1.13zM34.387 40.111c-.333.22-.677.433-1.023.633-.905.521-1.214 1.677-.693 2.58.142.246.33.447.547.6.583.41 1.375.472 2.034.093.412-.238.821-.49 1.218-.753.87-.575 1.11-1.748.535-2.618-.575-.871-1.747-1.11-2.618-.535zM46.98 22.76c-.04-1.043-.919-1.854-1.962-1.814-1.042.042-1.854.92-1.813 1.963.015.398.02.803.01 1.201-.015.654.305 1.237.802 1.587.296.209.656.335 1.046.344 1.042.023 1.907-.804 1.93-1.847.01-.476.006-.958-.013-1.434zM41.91 35.14c-.836-.627-2.02-.456-2.646.378-.24.32-.492.636-.751.94-.676.794-.58 1.986.214 2.663.045.038.09.074.138.107.79.556 1.887.428 2.525-.32.31-.363.61-.74.897-1.122.626-.835.457-2.019-.377-2.645zM44.688 28.31c-.996-.312-2.056.242-2.368 1.238-.12.38-.252.763-.395 1.137-.314.824-.013 1.73.676 2.217.126.088.266.164.417.22.975.373 2.066-.116 2.438-1.091.17-.445.327-.9.47-1.352.31-.996-.243-2.056-1.238-2.369zM20.004 43.08c-1.69-.303-3.31-.82-4.846-1.54-.018-.01-.035-.02-.054-.029-.362-.17-.723-.353-1.074-.544l-.005-.003c-.643-.354-1.27-.745-1.88-1.175C3.257 33.53 1.12 21.204 7.382 12.316c1.361-1.932 3.009-3.544 4.845-4.821l.068-.048c6.473-4.46 15.262-4.76 22.135-.177l-1.476 2.133c-.41.594-.158 1.026.56.961l6.413-.574c.72-.064 1.15-.686.956-1.381L39.16 2.205c-.193-.696-.686-.779-1.097-.185l-1.48 2.138C31.54.772 25.491-.52 19.486.522c-.605.105-1.201.233-1.79.382l-.011.002c-.023.005-.046.013-.068.019-5.178 1.33-9.695 4.35-12.92 8.658-.026.033-.054.064-.08.1-.107.144-.213.291-.318.439-.17.242-.338.49-.499.738-.02.03-.035.06-.053.09C1.087 15.074-.196 19.84.024 24.69v.049c.022.474.06.954.11 1.427.003.03.01.06.015.09.053.476.119.953.202 1.43.843 4.863 3.137 9.24 6.575 12.645l.024.024.009.008c.923.911 1.928 1.754 3.01 2.516 2.83 1.994 5.983 3.313 9.368 3.92 1.027.185 2.009-.499 2.193-1.525.184-1.028-.499-2.01-1.526-2.194z"/>
    <path fill="green" d="M22.342 8.406c-.845 0-1.53.685-1.53 1.528v15.23l13.93 7.201c.224.116.464.171.7.171.553 0 1.088-.301 1.36-.827.387-.75.094-1.672-.657-2.06L23.87 23.304V9.934c0-.843-.683-1.528-1.527-1.528z"/>
</svg>
