<svg xmlns="http://www.w3.org/2000/svg" width="20" height="20" fill="none" viewBox="0 0 20 20">
    <path fill="#342E49" d="M17.175 2.521C15.35.841 13.083 0 10.373 0 7.527 0 5.098.955 3.096 2.868 1.092 4.782.088 7.16.088 10.008c0 2.73.955 5.076 2.86 7.042C4.86 19.017 7.432 20 10.668 20c1.95 0 3.863-.4 5.74-1.204.612-.26.91-.962.66-1.578-.256-.637-.983-.93-1.615-.662-1.632.702-3.231 1.053-4.79 1.053-2.48 0-4.402-.755-5.765-2.268-1.358-1.51-2.04-3.285-2.04-5.32 0-2.212.73-4.056 2.187-5.537 1.453-1.477 3.244-2.22 5.365-2.22 1.954 0 3.607.608 4.953 1.824 1.347 1.216 2.02 2.746 2.02 4.59 0 1.26-.31 2.313-.926 3.15-.616.84-1.257 1.257-1.922 1.257-.359 0-.539-.192-.539-.58 0-.314.025-.681.07-1.106l.759-6.205h-2.611l-.168.608c-.665-.543-1.395-.816-2.187-.816-1.256 0-2.333.502-3.227 1.501-.897 1-1.342 2.289-1.342 3.864 0 1.538.396 2.782 1.191 3.725.796.946 1.75 1.416 2.868 1.416 1 0 1.853-.42 2.563-1.257.534.804 1.321 1.204 2.362 1.204 1.53 0 2.852-.665 3.966-2 1.114-1.33 1.672-2.937 1.672-4.818 0-2.383-.91-4.419-2.737-6.1zM11.16 11.91c-.461.62-1.012.935-1.652.935-.437 0-.788-.229-1.053-.686-.27-.457-.404-1.024-.404-1.705 0-.84.188-1.518.563-2.032.375-.514.84-.775 1.395-.775.482 0 .91.192 1.286.58.375.387.563.9.563 1.546-.005.803-.237 1.513-.698 2.137z"/>
</svg>
