<svg xmlns="http://www.w3.org/2000/svg" width="24" height="23" fill="none" viewBox="0 0 24 23">
    <path fill="#342E49" d="M22.037 2.796C20.796 1.46 19.057.702 17.234.699c-1.824.002-3.565.761-4.809 2.096l-.423.448-.424-.448C9.111.14 4.958-.013 2.303 2.455c-.117.109-.23.222-.34.34-2.617 2.823-2.617 7.185 0 10.008l9.416 9.93c.326.344.869.359 1.213.033l.032-.033 9.413-9.93c2.617-2.823 2.617-7.185 0-10.007zm-1.24 8.826h-.002l-8.793 9.275-8.795-9.275c-1.999-2.157-1.999-5.49 0-7.647 1.816-1.968 4.883-2.091 6.85-.276.096.089.188.18.277.276l1.045 1.103c.345.343.9.343 1.245 0l1.046-1.102c1.816-1.968 4.883-2.091 6.85-.276.096.088.188.18.276.276 2.017 2.16 2.032 5.5 0 7.646z"/>
</svg>
