<svg xmlns="http://www.w3.org/2000/svg" width="31" height="31" fill="none" viewBox="0 0 31 31">
    <path fill="#9F9F9F" d="M25.057 28.027v-3.093c0-3.643-2.815-5.822-5.52-7.948-.374-.293-.85-.849-.85-1.698 0-.85.429-1.678.85-2.032 2.632-2.215 5.52-4.305 5.52-7.948V2.973h2.123V0H3.824v2.973h2.123v2.335c0 3.643 2.889 5.733 5.521 7.948.42.354.85 1.182.85 2.032 0 .85-.476 1.405-.85 1.698-2.705 2.126-5.52 4.305-5.52 7.948v3.093H3.823V31H27.18v-2.973h-2.123zM10.14 8.068c-.783-.885-1.22-1.738-1.22-2.76V2.973h13.164v2.335c0 1.022-.437 1.875-1.22 2.76H10.14zm11.944 19.13l-4.999-1.95c-.87-.34-2.294-.34-3.165 0l-5 1.951v-2.265c0-2.061 1.639-3.453 4.312-5.553l.071-.056c1.015-.796 1.673-1.904 1.897-3.125.2.044.405.044.605 0 .223 1.22.882 2.329 1.895 3.124l.073.057c2.673 2.1 4.311 3.492 4.311 5.553V27.2z"/>
</svg>
