<svg xmlns="http://www.w3.org/2000/svg" width="48" height="51" fill="none" viewBox="0 0 48 51">
    <g clip-path="url(#prefix__clip0)">
        <path fill="#fff" d="M92.442 9.334H11.944V4.126c0-1.308 1.06-2.368 2.368-2.368h75.763c1.307 0 2.367 1.06 2.367 2.368v5.208zM94.81 16.91H9.577v-5.208c0-1.308 1.06-2.368 2.368-2.368h80.498c1.307 0 2.367 1.06 2.367 2.368v5.208zM37.913 34.023l-14.34-14.34c.181-.404.352-.81.516-1.219h-61.56c1.615 4.054 4.06 7.851 7.335 11.127 6.26 6.26 14.584 9.709 23.438 9.709 4.68 0 9.293-.988 13.527-2.878l12.821 12.82h18.263v-15.22z"/>
        <g clip-path="url(#prefix__clip1)">
            <path fill="#FAFAFA" d="M33.177 87.464H7.21V19.278c0-1.308.306-2.368.683-2.368h24.602c.377 0 .683 1.06.683 2.368v68.186z"/>
        </g>
        <path fill="#fff" d="M-6.698 34.564c15.69 0 28.41-12.72 28.41-28.41 0-15.692-12.72-28.412-28.41-28.412-15.691 0-28.411 12.72-28.411 28.411S-22.39 34.564-6.7 34.564z"/>
        <path fill="#F5F5F5" d="M-6.699 26.987c11.507 0 20.835-9.328 20.835-20.834 0-11.507-9.328-20.835-20.835-20.835-11.506 0-20.834 9.328-20.834 20.835 0 11.506 9.328 20.834 20.834 20.834z"/>
        <g fill="#585077" fill-rule="evenodd" clip-path="url(#prefix__clip2)" clip-rule="evenodd">
            <path d="M3.482 27.907c.414 0 .749-.334.749-.747V8.193c0-.143.116-.259.259-.259H40.791c.143 0 .26.116.26.259v9.006c0 .412.335.747.748.747.414 0 .749-.335.749-.747V8.193c0-.7-.414-1.303-1.009-1.584V4.973c0-.7-.413-1.302-1.008-1.584V1.753C40.53.787 39.743 0 38.774 0H6.507C5.538 0 4.75.787 4.75 1.753V3.39c-.595.282-1.009.885-1.009 1.584V6.61c-.594.28-1.008.884-1.008 1.583V27.16c0 .413.336.747.75.747zM5.24 4.973c0-.143.116-.259.26-.259h34.283c.143 0 .26.116.26.26V6.44H5.239V4.973zm1.008-3.22c0-.143.117-.259.26-.259h32.267c.143 0 .26.116.26.26V3.22H6.247V1.753z"/>
            <path d="M31.62 25.151c-1.818-1.813-4.234-2.812-6.805-2.812-2.57 0-4.986.999-6.803 2.812-1.818 1.814-2.819 4.225-2.819 6.79 0 2.565 1.001 4.976 2.819 6.79 1.817 1.813 4.233 2.812 6.803 2.812 2.57 0 4.987-.999 6.804-2.812 1.818-1.814 2.819-4.225 2.819-6.79 0-2.565-1.001-4.976-2.819-6.79zm-1.06 12.523c-1.535 1.531-3.575 2.375-5.745 2.375s-4.21-.844-5.745-2.375c-1.535-1.531-2.38-3.567-2.38-5.733 0-2.166.845-4.202 2.38-5.733 1.534-1.531 3.575-2.375 5.745-2.375s4.21.844 5.745 2.375c1.534 1.531 2.38 3.567 2.38 5.733 0 2.166-.846 4.202-2.38 5.733z"/>
            <path d="M47.975 49.726l-3.411-3.404v-9.149c0-.412-.335-.747-.749-.747h-1.267v-15.74c0-.413-.336-.747-.75-.747-.413 0-.748.334-.748.747v15.74h-4.198c1.698-4.558.715-9.894-2.95-13.551-4.444-4.435-11.36-4.935-16.362-1.503V10.408c0-.413-.335-.748-.748-.748H6.708c-.413 0-.748.335-.748.748v12.477c0 .412.335.747.748.747h8.322c-3.084 3.612-3.834 8.541-2.25 12.794H4.23v-5.78c0-.412-.335-.746-.748-.746-.414 0-.749.334-.749.747v5.78H1.464c-.2 0-.39.079-.531.22-.14.142-.219.334-.217.533l.112 13.08c.003.41.337.742.748.742h4.448c.414 0 .749-.335.749-.748 0-.412-.335-.747-.749-.747H2.32l-.1-11.587h11.23c.585 1.112 1.346 2.154 2.281 3.088 2.505 2.5 5.795 3.749 9.086 3.749 2.07 0 4.142-.495 6.017-1.486l2.152 2.148c.14.14.33.219.53.219.198 0 .388-.079.529-.22l.326-.325 1.508 1.505-.326.326c-.292.291-.292.765 0 1.056l1.53 1.527H9.518c-.413 0-.749.335-.749.747 0 .413.336.748.749.748H38.891c.19-.001.382-.074.528-.22.292-.291.292-.764 0-1.056l-2.279-2.274 3.22-3.212 6.556 6.543c.146.145.338.219.53.219.191 0 .383-.073.529-.22.292-.291.292-.764 0-1.056zM7.457 11.155h8.586v10.983H7.457V11.155zm9.332 28.796c-4.426-4.417-4.426-11.603 0-16.02 2.213-2.208 5.12-3.312 8.027-3.312 2.907 0 5.813 1.104 8.026 3.312 4.426 4.417 4.426 11.603 0 16.02-4.426 4.416-11.627 4.416-16.053 0zm15.36 2.52c.616-.428 1.203-.915 1.752-1.464.55-.548 1.038-1.133 1.467-1.748l1.366 1.362-3.22 3.213-1.365-1.363zm3.28 1.566l1.507-1.505 1.508 1.505-1.508 1.505-1.508-1.505zm4.4-1.382l-.325.326-1.509-1.505.327-.326c.14-.14.219-.33.219-.528s-.079-.388-.22-.528l-2.152-2.148.014-.025h6.883v6.908l-2.178-2.174c-.292-.291-.766-.291-1.058 0z"/>
        </g>
    </g>
    <defs>
        <clipPath id="prefix__clip0">
            <path fill="#fff" d="M0 0H47.09V50.69H0z" transform="translate(.716)"/>
        </clipPath>
        <clipPath id="prefix__clip1">
            <path fill="#fff" d="M0 0H25.968V70.554H0z" transform="translate(7.209 16.91)"/>
        </clipPath>
        <clipPath id="prefix__clip2">
            <path fill="#fff" d="M0 0H47.478V51.001H0z" transform="translate(.716)"/>
        </clipPath>
    </defs>
</svg>
