<svg xmlns="http://www.w3.org/2000/svg" width="32" height="32" fill="none" viewBox="0 0 32 32">
    <path fill="#D8CDBA" d="M15.627 12.657c-1.713 0-3.108 1.394-3.108 3.107 0 1.714 1.395 3.11 3.108 3.11 1.714 0 3.109-1.396 3.109-3.11 0-1.713-1.395-3.107-3.109-3.107zm0 0c-1.713 0-3.108 1.394-3.108 3.107 0 1.714 1.395 3.11 3.108 3.11 1.714 0 3.109-1.396 3.109-3.11 0-1.713-1.395-3.107-3.109-3.107zm5.178-5.068H10.45c-1.653 0-2.998 1.345-2.998 2.998v10.355c0 1.653 1.345 2.998 2.998 2.998h10.355c1.653 0 2.998-1.345 2.998-2.998V10.587c0-1.653-1.345-2.998-2.998-2.998zm-5.178 13.558c-2.967 0-5.382-2.414-5.382-5.383 0-2.967 2.415-5.382 5.382-5.382 2.969 0 5.384 2.415 5.384 5.382 0 2.969-2.415 5.383-5.384 5.383zm5.556-9.652c-.702 0-1.273-.571-1.273-1.274 0-.702.571-1.273 1.273-1.273.703 0 1.274.57 1.274 1.273s-.571 1.274-1.274 1.274zm-5.556 1.162c-1.713 0-3.108 1.394-3.108 3.107 0 1.714 1.395 3.11 3.108 3.11 1.714 0 3.109-1.396 3.109-3.11 0-1.713-1.395-3.107-3.109-3.107zm5.178-5.068H10.45c-1.653 0-2.998 1.345-2.998 2.998v10.355c0 1.653 1.345 2.998 2.998 2.998h10.355c1.653 0 2.998-1.345 2.998-2.998V10.587c0-1.653-1.345-2.998-2.998-2.998zm-5.178 13.558c-2.967 0-5.382-2.414-5.382-5.383 0-2.967 2.415-5.382 5.382-5.382 2.969 0 5.384 2.415 5.384 5.382 0 2.969-2.415 5.383-5.384 5.383zm5.556-9.652c-.702 0-1.273-.571-1.273-1.274 0-.702.571-1.273 1.273-1.273.703 0 1.274.57 1.274 1.273s-.571 1.274-1.274 1.274zm-5.556 1.162c-1.713 0-3.108 1.394-3.108 3.107 0 1.714 1.395 3.11 3.108 3.11 1.714 0 3.109-1.396 3.109-3.11 0-1.713-1.395-3.107-3.109-3.107zM0 .137v31.255h31.256V.137H0zm26.078 20.805c0 2.907-2.365 5.272-5.273 5.272H10.45c-2.907 0-5.272-2.364-5.272-5.272V10.587c0-2.907 2.365-5.272 5.272-5.272h10.355c2.908 0 5.273 2.365 5.273 5.272v10.355zM20.805 7.59H10.45c-1.653 0-2.998 1.345-2.998 2.998v10.355c0 1.653 1.345 2.998 2.998 2.998h10.355c1.653 0 2.998-1.345 2.998-2.998V10.587c0-1.653-1.345-2.998-2.998-2.998zm-5.178 13.558c-2.967 0-5.382-2.414-5.382-5.383 0-2.967 2.415-5.382 5.382-5.382 2.969 0 5.384 2.415 5.384 5.382 0 2.969-2.415 5.383-5.384 5.383zm5.556-9.652c-.702 0-1.273-.571-1.273-1.274 0-.702.571-1.273 1.273-1.273.703 0 1.274.57 1.274 1.273s-.571 1.274-1.274 1.274zm-5.556 1.162c-1.713 0-3.108 1.394-3.108 3.107 0 1.714 1.395 3.11 3.108 3.11 1.714 0 3.109-1.396 3.109-3.11 0-1.713-1.395-3.107-3.109-3.107zm0 0c-1.713 0-3.108 1.394-3.108 3.107 0 1.714 1.395 3.11 3.108 3.11 1.714 0 3.109-1.396 3.109-3.11 0-1.713-1.395-3.107-3.109-3.107zm0 0c-1.713 0-3.108 1.394-3.108 3.107 0 1.714 1.395 3.11 3.108 3.11 1.714 0 3.109-1.396 3.109-3.11 0-1.713-1.395-3.107-3.109-3.107zm5.178-5.068H10.45c-1.653 0-2.998 1.345-2.998 2.998v10.355c0 1.653 1.345 2.998 2.998 2.998h10.355c1.653 0 2.998-1.345 2.998-2.998V10.587c0-1.653-1.345-2.998-2.998-2.998zm-5.178 13.558c-2.967 0-5.382-2.414-5.382-5.383 0-2.967 2.415-5.382 5.382-5.382 2.969 0 5.384 2.415 5.384 5.382 0 2.969-2.415 5.383-5.384 5.383zm5.556-9.652c-.702 0-1.273-.571-1.273-1.274 0-.702.571-1.273 1.273-1.273.703 0 1.274.57 1.274 1.273s-.571 1.274-1.274 1.274zm-5.556 1.162c-1.713 0-3.108 1.394-3.108 3.107 0 1.714 1.395 3.11 3.108 3.11 1.714 0 3.109-1.396 3.109-3.11 0-1.713-1.395-3.107-3.109-3.107zm0 0c-1.713 0-3.108 1.394-3.108 3.107 0 1.714 1.395 3.11 3.108 3.11 1.714 0 3.109-1.396 3.109-3.11 0-1.713-1.395-3.107-3.109-3.107zm0 0c-1.713 0-3.108 1.394-3.108 3.107 0 1.714 1.395 3.11 3.108 3.11 1.714 0 3.109-1.396 3.109-3.11 0-1.713-1.395-3.107-3.109-3.107zm5.178-5.068H10.45c-1.653 0-2.998 1.345-2.998 2.998v10.355c0 1.653 1.345 2.998 2.998 2.998h10.355c1.653 0 2.998-1.345 2.998-2.998V10.587c0-1.653-1.345-2.998-2.998-2.998zm-5.178 13.558c-2.967 0-5.382-2.414-5.382-5.383 0-2.967 2.415-5.382 5.382-5.382 2.969 0 5.384 2.415 5.384 5.382 0 2.969-2.415 5.383-5.384 5.383zm5.556-9.652c-.702 0-1.273-.571-1.273-1.274 0-.702.571-1.273 1.273-1.273.703 0 1.274.57 1.274 1.273s-.571 1.274-1.274 1.274zm-5.556 1.162c-1.713 0-3.108 1.394-3.108 3.107 0 1.714 1.395 3.11 3.108 3.11 1.714 0 3.109-1.396 3.109-3.11 0-1.713-1.395-3.107-3.109-3.107z"/>
</svg>
