<svg xmlns="http://www.w3.org/2000/svg" width="33" height="32" fill="none" viewBox="0 0 33 32">
    <path fill="#D8CDBA" d="M32.254.137H.998v31.255h31.256V.137z"/>
    <path fill="#fff" d="M8.357 4.887c1.431 0 2.612 1.183 2.609 2.622-.003 1.506-1.254 2.642-2.627 2.61-1.393.027-2.617-1.136-2.616-2.62 0-1.44 1.185-2.613 2.634-2.612zM9.874 26.643H6.807c-.398 0-.721-.323-.721-.72V12.837c0-.398.323-.72.72-.72h3.068c.398 0 .72.322.72.72v13.085c0 .398-.322.72-.72.72zM27.53 16.715c0-2.743-2.223-4.967-4.966-4.967h-.787c-1.5 0-2.827.749-3.624 1.893-.087.125-.168.255-.241.388l-.042-.005v-1.606c0-.165-.134-.3-.299-.3h-3.827c-.165 0-.299.135-.299.3v13.928c0 .165.134.3.3.3h3.91c.165 0 .299-.134.299-.3V18.3c0-1.39 1.11-2.545 2.5-2.561.71-.008 1.354.276 1.817.74.458.458.741 1.09.741 1.79v8.079c0 .165.134.3.3.3h3.919c.165 0 .3-.134.3-.3v-9.633z"/>
</svg>
