<svg xmlns="http://www.w3.org/2000/svg" width="29.137" height="35.5" viewBox="0 0 29.137 35.5">
    <defs>
        <style>
            .prefix__cls-1{fill:none;stroke:#352f4a;stroke-width:.5px}.prefix__cls-2{fill:#f4eee4}
        </style>
    </defs>
    <g id="prefix__Group_1239" data-name="Group 1239" transform="translate(-33.47 -26.556)">
        <g id="prefix__Location" transform="translate(33.72 26.806)">
            <path id="prefix__Shape" d="M14.318 35c-1.1 0-3.683 0-12.337-13.873l-.112-.2A15.965 15.965 0 010 14.318 14.683 14.683 0 0114.318 0a14.683 14.683 0 0114.318 14.318 15.96 15.96 0 01-1.9 6.61l-.111.191c-.079.142-2.047 3.317-4.351 6.507C17.888 33.793 16.036 35 14.318 35zm0-32.614A11.932 11.932 0 002.386 14.318a13.484 13.484 0 001.591 5.568C4 19.918 5.988 23.1 8.253 26.25c2.087 2.9 4.832 6.364 6.065 6.364s3.979-3.461 6.065-6.364c2.26-3.145 4.256-6.332 4.275-6.364h-.024a13.483 13.483 0 001.615-5.568A11.932 11.932 0 0014.318 2.386z" class="prefix__cls-1"/>
            <path id="prefix__Shape-2" d="M6.364 12.727a6.364 6.364 0 116.364-6.364 6.371 6.371 0 01-6.364 6.364zm0-10.341a3.977 3.977 0 103.977 3.978 3.982 3.982 0 00-3.977-3.978z" class="prefix__cls-1" data-name="Shape" transform="translate(7.955 7.159)"/>
        </g>
        <path id="prefix__Rectangle_624" d="M0 0H3.182V2.386H0z" class="prefix__cls-2" data-name="Rectangle 624" transform="translate(46.67 28.079)"/>
        <path id="prefix__Rectangle_625" d="M0 0H3.182V2.386H0z" class="prefix__cls-2" data-name="Rectangle 625" transform="translate(49.852 40.011)"/>
        <path id="prefix__Rectangle_626" d="M0 0H3.182V2.386H0z" class="prefix__cls-2" data-name="Rectangle 626" transform="translate(37.92 47.965)"/>
    </g>
</svg>
