<svg xmlns="http://www.w3.org/2000/svg" width="32" height="32" fill="none" viewBox="0 0 32 32">
    <path fill="#D8CDBA" d="M31.256.137H0v31.255h31.256V.137z"/>
    <path fill="#fff" d="M4.144 23.307c2.08 1.32 4.548 2.083 7.193 2.083 7.43 0 13.454-6.025 13.454-13.455 0-.186-.004-.37-.01-.553.268-.212 1.93-1.544 2.338-2.4 0 0-1.35.56-2.671.692h-.009s.003 0 .007-.004c.122-.08 1.824-1.24 2.054-2.62 0 0-.954.51-2.291.956-.221.073-.453.145-.692.212-.862-.92-2.087-1.493-3.446-1.493-2.608 0-4.722 2.112-4.722 4.718 0 .368.043.726.123 1.07-.365-.015-5.915-.326-9.69-4.899 0 0-2.257 3.08 1.344 6.249 0 0-1.094-.044-2.039-.608 0 0-.347 3.732 3.731 4.686 0 0-.802.304-2.082.087 0 0 .716 3.016 4.34 3.297 0 0-2.866 2.589-6.933 1.982z"/>
</svg>
