<svg xmlns="http://www.w3.org/2000/svg" width="24" height="24" fill="none" viewBox="0 0 24 24">
    <path fill="#585077" fill-rule="evenodd" d="M12 4.645c-2.565 0-4.645 2.081-4.645 4.645 0 2.565 2.08 4.646 4.645 4.646 2.564 0 4.645-2.081 4.645-4.646 0-2.564-2.08-4.645-4.645-4.645zm0 6.968c-1.282 0-2.323-1.04-2.323-2.322 0-1.283 1.04-2.323 2.323-2.323 1.282 0 2.322 1.04 2.322 2.323 0 1.282-1.04 2.322-2.322 2.322zM12 0C5.371 0 0 5.371 0 12s5.371 12 12 12 12-5.371 12-12S18.629 0 12 0zm0 21.678c-2.405 0-4.602-.886-6.295-2.342.72-1.113 1.955-1.868 3.367-1.911 1.007.31 1.965.464 2.928.464.963 0 1.92-.15 2.927-.464 1.413.048 2.647.798 3.368 1.91-1.694 1.457-3.89 2.343-6.295 2.343zm7.873-4.07c-1.181-1.52-3.005-2.511-5.086-2.511-.493 0-1.258.464-2.787.464-1.524 0-2.293-.464-2.787-.464-2.076 0-3.9.992-5.085 2.511C2.995 16.026 2.323 14.09 2.323 12c0-5.337 4.34-9.677 9.677-9.677s9.677 4.34 9.677 9.677c0 2.09-.672 4.026-1.804 5.608z" clip-rule="evenodd"/>
</svg>
