<svg xmlns="http://www.w3.org/2000/svg" width="20" height="20" fill="none" viewBox="0 0 20 20">
    <path fill="#342E49" d="M17.07 2.93C13.162-.976 6.838-.976 2.93 2.93c-3.907 3.908-3.907 10.232 0 14.14 3.908 3.907 10.232 3.907 14.14 0 3.907-3.908 3.907-10.232 0-14.14zm-.418 12.714c-.468-.417-.967-.787-1.494-1.106.348-1.202.555-2.525.603-3.9h2.94c-.133 1.853-.846 3.592-2.05 5.006zM1.299 10.637h2.94c.048 1.376.255 2.699.603 3.901-.527.319-1.027.689-1.494 1.106-1.203-1.414-1.916-3.153-2.049-5.007zm2.05-6.281c.467.417.966.787 1.493 1.106-.348 1.202-.554 2.525-.603 3.9h-2.94c.133-1.853.846-3.592 2.05-5.006zm6.014 1.237c-1.04-.074-2.041-.33-2.97-.752.54-1.391 1.536-3.06 2.97-3.473v4.225zm0 1.277v2.493h-3.85c.045-1.164.21-2.281.484-3.303 1.055.461 2.19.737 3.366.81zm0 3.767v2.493c-1.176.073-2.31.349-3.366.81-.275-1.022-.44-2.14-.483-3.303h3.849zm0 3.77v4.225c-1.434-.414-2.43-2.082-2.97-3.473.929-.422 1.93-.678 2.97-.752zm1.274 0c1.04.074 2.041.33 2.97.752-.54 1.391-1.536 3.06-2.97 3.473v-4.225zm0-1.277v-2.493h3.85c-.045 1.164-.21 2.281-.484 3.303-1.055-.461-2.19-.737-3.366-.81zm0-3.767V6.87c1.176-.073 2.31-.349 3.366-.81.274 1.022.44 2.14.483 3.303h-3.849zm0-3.77V1.368c1.434.414 2.43 2.082 2.97 3.473-.929.422-1.93.678-2.97.752zM13.5 2.004c.815.357 1.576.842 2.258 1.442-.324.287-.667.546-1.025.778-.317-.786-.723-1.55-1.233-2.22zm-8.231 2.22c-.358-.232-.7-.491-1.025-.778.682-.6 1.443-1.085 2.258-1.442-.51.67-.916 1.434-1.233 2.22zm0 11.552c.317.786.723 1.55 1.233 2.22-.815-.357-1.576-.841-2.258-1.442.324-.287.667-.546 1.025-.778zm9.464 0c.358.232.7.491 1.025.778-.682.6-1.443 1.085-2.258 1.442.51-.67.916-1.434 1.233-2.22zm1.03-6.413c-.05-1.376-.256-2.699-.604-3.901.527-.319 1.027-.689 1.494-1.106 1.203 1.414 1.916 3.153 2.049 5.007h-2.94z"/>
</svg>
