<svg xmlns="http://www.w3.org/2000/svg" width="57" height="75" fill="none" viewBox="0 0 57 75">
    <path fill="#D8CDBA" d="M37.545 9.233c-8.15-4.119-17.968-2.544-24.429 3.918-7.51 7.51-8.262 19.484-1.748 27.853.23.296.574.45.922.45.25 0 .503-.08.716-.245.51-.397.6-1.13.205-1.64-5.792-7.44-5.122-18.089 1.556-24.767 5.747-5.747 14.477-7.148 21.725-3.485.575.29 1.278.06 1.569-.516.29-.575.06-1.278-.516-1.568zM46.87 18.558c-.29-.576-.992-.807-1.568-.516-.575.29-.806.992-.516 1.568 3.66 7.247 2.259 15.976-3.487 21.721-6.678 6.679-17.326 7.348-24.768 1.557-.509-.396-1.242-.305-1.638.204-.396.51-.305 1.243.204 1.639 3.813 2.967 8.373 4.426 12.918 4.426 5.434 0 10.847-2.086 14.936-6.175 6.46-6.46 8.035-16.275 3.92-24.424zM43.854 14.11c-.29-.327-.593-.65-.904-.96-.31-.31-.633-.614-.96-.904-.483-.427-1.221-.381-1.648.102-.428.483-.382 1.221.101 1.648.292.258.58.529.856.805s.547.564.805.856c.23.26.552.394.875.394.275 0 .55-.096.773-.293.483-.427.529-1.164.102-1.648z"/>
    <path fill="#585077" d="M55.594 30.16c.779-1.278.779-2.864 0-4.141l-1.536-2.52c-.203-.331-.28-.726-.22-1.11l.457-2.909c.234-1.482-.375-2.951-1.589-3.834l-2.38-1.732c-.315-.23-.539-.563-.63-.941l-.694-2.866c-.352-1.455-1.475-2.578-2.93-2.93l-2.865-.693c-.379-.092-.713-.316-.942-.63l-1.732-2.382c-.882-1.213-2.352-1.823-3.834-1.59l-2.91.459c-.384.06-.778-.018-1.11-.22L30.16.584c-1.277-.779-2.863-.779-4.14 0l-2.52 1.536c-.331.203-.725.28-1.11.22l-2.909-.458c-1.482-.233-2.952.376-3.834 1.59l-1.732 2.38c-.23.315-.563.539-.942.63l-2.865.694c-1.455.352-2.578 1.475-2.93 2.93l-.694 2.865c-.091.379-.315.713-.63.942l-2.381 1.732c-1.214.882-1.823 2.351-1.59 3.834l.458 2.91c.06.384-.017.778-.22 1.11L.584 26.02c-.779 1.277-.779 2.864 0 4.14l1.536 2.52c.202.332.28.726.22 1.11l-.458 2.91c-.233 1.482.376 2.95 1.59 3.834l2.38 1.731c.315.23.539.564.63.942l.694 2.865c.352 1.455 1.474 2.578 2.93 2.93l1.196.29-8.097 18.062c-.172.384-.125.83.125 1.17.249.338.661.517 1.079.467l6.515-.779 3.754 5.382c.22.315.578.5.957.5.036 0 .073-.002.11-.005.418-.04.784-.301.956-.685l8.27-18.448 1.047.639c.639.39 1.355.584 2.07.584.717 0 1.433-.195 2.071-.584l1.086-.662 8.28 18.471c.172.384.537.645.956.685.037.003.073.005.11.005.38 0 .738-.185.957-.5l3.753-5.382 6.516.78c.417.049.83-.13 1.079-.468.25-.34.297-.786.125-1.17l-8.102-18.072 1.152-.279c1.455-.352 2.578-1.474 2.93-2.93l.694-2.865c.091-.378.315-.713.63-.941l2.38-1.732c1.215-.883 1.823-2.352 1.59-3.835l-.458-2.91c-.06-.384.018-.778.22-1.11l1.537-2.52zm-40.18 40.406l-2.975-4.265c-.247-.354-.668-.543-1.096-.492l-5.164.618 7.378-16.458c.135.1.256.218.355.356l1.732 2.38c.165.227.35.432.551.615l-3.883 8.662c-.263.589 0 1.28.588 1.543.155.07.317.102.477.102.446 0 .872-.257 1.066-.69l3.87-8.631c.38.052.772.051 1.166-.01l2.91-.459c.174-.027.35-.024.521.004l-7.497 16.725zm34.633-4.14l-5.164-.617c-.428-.051-.85.138-1.096.492l-2.974 4.265-7.5-16.732c.156-.021.317-.021.476.004l2.909.458c.41.064.817.062 1.212.003l3.873 8.639c.194.433.62.69 1.066.69.16 0 .322-.033.477-.103.588-.263.851-.954.587-1.543l-3.897-8.695c.188-.174.361-.368.516-.58l1.732-2.381c.11-.15.243-.279.393-.383l7.39 16.483zM53.6 28.944l-1.536 2.52c-.49.803-.68 1.758-.533 2.688l.457 2.91c.097.612-.155 1.219-.656 1.583l-2.381 1.732c-.762.554-1.304 1.364-1.526 2.28l-.694 2.866c-.145.6-.608 1.064-1.21 1.21l-2.864.693c-.917.222-1.727.764-2.281 1.526l-1.732 2.38c-.364.502-.97.753-1.583.657l-2.91-.458c-.93-.146-1.885.043-2.688.533l-2.52 1.536c-.527.321-1.182.321-1.709 0l-2.52-1.536c-.626-.382-1.344-.581-2.071-.581-.206 0-.412.016-.617.048l-2.91.458c-.612.096-1.219-.156-1.583-.656L15.8 48.95c-.555-.762-1.365-1.304-2.28-1.526l-2.866-.693c-.6-.146-1.064-.609-1.21-1.21l-.693-2.865c-.222-.916-.764-1.727-1.526-2.281l-2.38-1.732c-.502-.364-.753-.971-.657-1.583l.458-2.91c.146-.93-.043-1.884-.533-2.688l-1.536-2.52c-.322-.527-.322-1.182 0-1.709l1.536-2.52c.49-.803.68-1.758.533-2.688l-.458-2.91c-.096-.612.156-1.218.657-1.583l2.381-1.732c.762-.555 1.304-1.364 1.526-2.28l.693-2.866c.146-.6.61-1.064 1.21-1.21l2.865-.693c.917-.222 1.727-.764 2.281-1.526l1.732-2.38c.364-.502.97-.753 1.583-.657l2.91.458c.93.147 1.884-.043 2.688-.533l2.52-1.536c.526-.321 1.182-.321 1.709 0l2.52 1.536c.803.49 1.758.68 2.688.533l2.91-.458c.612-.095 1.219.156 1.583.657l1.732 2.38c.554.763 1.364 1.305 2.28 1.527l2.866.693c.6.146 1.064.61 1.21 1.21l.693 2.865c.222.916.764 1.727 1.526 2.281l2.38 1.732c.502.364.753.97.657 1.583l-.458 2.91c-.146.93.043 1.884.533 2.688l1.536 2.52c.322.527.322 1.182 0 1.709z"/>
    <path fill="#585077" d="M41.753 24.456c-.257-.792-.93-1.345-1.758-1.443l-7.026-.834-2.963-6.424c-.35-.756-1.083-1.226-1.916-1.226s-1.567.47-1.916 1.226L23.21 22.18l-7.026.833c-.827.098-1.5.651-1.758 1.443-.257.792-.037 1.635.574 2.2l5.195 4.805-1.38 6.94c-.162.816.156 1.628.83 2.117.372.27.803.407 1.238.407.352 0 .707-.09 1.033-.273l6.174-3.455 6.173 3.455c.727.407 1.597.356 2.27-.134.675-.49.993-1.301.83-2.118l-1.379-6.94 5.195-4.803c.611-.566.831-1.409.574-2.201zM33.92 30.19c-.298.276-.431.686-.352 1.085l1.41 7.1-6.317-3.535c-.177-.1-.374-.15-.57-.15-.197 0-.394.05-.57.15L21.2 38.376l1.411-7.101c.08-.399-.054-.81-.352-1.085l-5.316-4.916 7.19-.852c.404-.048.753-.302.923-.67l3.033-6.575 3.032 6.574c.17.369.52.623.923.67l7.19.853-5.316 4.916z"/>
</svg>
