<svg xmlns="http://www.w3.org/2000/svg" id="prefix__logotype" width="26.831" height="26.953" viewBox="0 0 26.831 26.953">
    <path id="prefix__Path_18006" d="M25.358 1.483A4.834 4.834 0 0 0 21.8 0H5.034a4.836 4.836 0 0 0-3.555 1.483A4.879 4.879 0 0 0 0 5.054V21.9a4.88 4.88 0 0 0 1.479 3.57 4.835 4.835 0 0 0 3.555 1.483H21.8a5.051 5.051 0 0 0 5.034-5.053V5.054a4.88 4.88 0 0 0-1.476-3.571zM8.178 22.566H4.143V10.388h4.035v12.178zM7.811 8.133a2.292 2.292 0 0 1-1.66.605h-.017a2.215 2.215 0 0 1-1.616-.605 2.012 2.012 0 0 1-.62-1.5 1.979 1.979 0 0 1 .638-1.509 2.319 2.319 0 0 1 1.651-.6 2.227 2.227 0 0 1 1.625.6 2.079 2.079 0 0 1 .628 1.509 2 2 0 0 1-.629 1.5zm14.883 14.433h-4.035v-6.51q0-2.755-2.026-2.755a1.971 1.971 0 0 0-1.293.43 2.7 2.7 0 0 0-.786 1.044 2.907 2.907 0 0 0-.122.982v6.808H10.4q.052-11.019 0-12.178h4.035v1.719a4.048 4.048 0 0 1 3.616-2 4.363 4.363 0 0 1 3.371 1.386 5.845 5.845 0 0 1 1.275 4.088v6.984z" data-name="Path 18006" transform="translate(-.003)" style="fill:#d8cdba"/>
</svg>
