<svg xmlns="http://www.w3.org/2000/svg" width="8.935" height="9.57" viewBox="0 0 8.935 9.57">
    <defs>
        <style>
            .prefix__cls-1{fill:#352f4a}
        </style>
    </defs>
    <g id="prefix__Group_1280" data-name="Group 1280" transform="translate(-16.964)">
        <g id="prefix__Group_1201" data-name="Group 1201" transform="translate(16.964)">
            <g id="prefix__Group_1200" data-name="Group 1200">
                <path id="prefix__Path_13836" d="M307.1 170.631a.16.16 0 00.16.16h1.6a.16.16 0 000-.319h-1.6a.159.159 0 00-.16.159z" class="prefix__cls-1" data-name="Path 13836" transform="translate(-301.673 -167.284)"/>
                <path id="prefix__Path_13837" d="M358.3 221.831a.16.16 0 00.16.16h.957a.16.16 0 100-.319h-.957a.159.159 0 00-.16.159z" class="prefix__cls-1" data-name="Path 13837" transform="translate(-351.916 -217.526)"/>
                <path id="prefix__Path_13838" d="M324.643 119.59a.16.16 0 000-.319h-.319a.16.16 0 000 .319z" class="prefix__cls-1" data-name="Path 13838" transform="translate(-318.42 -117.041)"/>
                <path id="prefix__Path_13839" d="M238.991 221.67a.16.16 0 000 .319h1.6a.16.16 0 000-.319z" class="prefix__cls-1" data-name="Path 13839" transform="translate(-234.683 -217.525)"/>
                <path id="prefix__Path_13840" d="M55.566 41.915h-3.032a.479.479 0 01-.479-.479V34.1a.16.16 0 00-.16-.16.8.8 0 00-.8.8.16.16 0 00.319 0 .48.48 0 01.319-.451v7.153a.8.8 0 00.8.8h3.032a.16.16 0 000-.319z" class="prefix__cls-1" data-name="Path 13840" transform="translate(-50.46 -33.302)"/>
                <path id="prefix__Path_13841" d="M153.658 170.79h2.234a.16.16 0 000-.319h-2.234a.16.16 0 000 .319z" class="prefix__cls-1" data-name="Path 13841" transform="translate(-150.945 -167.284)"/>
                <path id="prefix__Path_13842" d="M153.658 119.59h.638a.16.16 0 100-.319h-.638a.16.16 0 000 .319z" class="prefix__cls-1" data-name="Path 13842" transform="translate(-150.945 -117.041)"/>
                <path id="prefix__Path_13843" d="M223.2 119.27h-1.276a.16.16 0 000 .319h1.276a.16.16 0 000-.319z" class="prefix__cls-1" data-name="Path 13843" transform="translate(-217.935 -117.04)"/>
                <path id="prefix__Path_13844" d="M24.463 0H18.4a1.438 1.438 0 00-1.436 1.43v.007a1.442 1.442 0 00.718 1.238.159.159 0 00.16-.276A1.115 1.115 0 0118.4.319h6.063a1.118 1.118 0 011.117 1.117v6.7a.464.464 0 01-.065.235.16.16 0 00.275.162.783.783 0 00.109-.4v-6.7A1.438 1.438 0 0024.463 0z" class="prefix__cls-1" data-name="Path 13844" transform="translate(-16.964)"/>
                <path id="prefix__Path_13845" d="M343.146 342.094a.957.957 0 10-.957.957.958.958 0 00.957-.957zm-.957.638a.638.638 0 11.638-.638.639.639 0 01-.639.639z" class="prefix__cls-1" data-name="Path 13845" transform="translate(-335.168 -334.758)"/>
                <path id="prefix__Path_13846" d="M310.646 433.71a.16.16 0 00-.218.058l-.344.6-.055-.082a.159.159 0 00-.124-.071l-.1-.006.349-.6a.16.16 0 00-.276-.16l-.478.828a.16.16 0 00.129.239l.276.017.153.231a.159.159 0 00.133.072.16.16 0 00.133-.08l.473-.819a.159.159 0 00-.051-.227z" class="prefix__cls-1" data-name="Path 13846" transform="translate(-303.913 -425.257)"/>
                <path id="prefix__Path_13847" d="M404.509 433.841a.16.16 0 00-.277.16l.345.6-.1.006a.16.16 0 00-.124.071l-.054.082-.342-.592a.16.16 0 00-.276.16l.471.816a.16.16 0 00.133.08.16.16 0 00.133-.072l.153-.231.276-.017a.16.16 0 00.129-.239z" class="prefix__cls-1" data-name="Path 13847" transform="translate(-396.431 -425.65)"/>
                <path id="prefix__Path_13848" d="M153.658 221.99h.957a.16.16 0 100-.319h-.957a.16.16 0 000 .319z" class="prefix__cls-1" data-name="Path 13848" transform="translate(-150.945 -217.526)"/>
                <path id="prefix__Path_13849" d="M153.658 273.19h1.915a.16.16 0 100-.319h-1.915a.16.16 0 000 .319z" class="prefix__cls-1" data-name="Path 13849" transform="translate(-150.945 -267.769)"/>
                <path id="prefix__Path_13850" d="M153.355 325.419a.159.159 0 10.285-.143.848.848 0 01-.1-.758.3.3 0 01.272-.128.129.129 0 01.122.052c.119.171.006.693-.112 1.009a.16.16 0 00.262.169c.068-.068.142-.136.206-.191v.078a.16.16 0 00.272.113 1.994 1.994 0 01.229-.2l-.006.011a.16.16 0 00.143.231h.638a.16.16 0 100-.319h-.415a.308.308 0 00-.029-.215.222.222 0 00-.194-.1.621.621 0 00-.321.134.184.184 0 00-.112-.153c-.043-.018-.1-.041-.231.039a1.1 1.1 0 00-.069-.789.443.443 0 00-.385-.189.609.609 0 00-.543.279 1.124 1.124 0 00.088 1.07z" class="prefix__cls-1" data-name="Path 13850" transform="translate(-150.625 -318.012)"/>
                <path id="prefix__Path_13851" d="M291.947 273.031a.16.16 0 00-.16-.16h-1.6a.16.16 0 000 .319h1.6a.16.16 0 00.16-.159z" class="prefix__cls-1" data-name="Path 13851" transform="translate(-284.926 -267.769)"/>
            </g>
        </g>
    </g>
</svg>
