<svg xmlns="http://www.w3.org/2000/svg" width="26" height="26" fill="none" viewBox="0 0 26 26">
    <path fill="#D8CDBA" d="M21.508 3.69C19.128 1.31 15.965 0 12.6 0 9.234 0 6.07 1.31 3.69 3.69 1.31 6.07 0 9.234 0 12.6c0 3.365 1.31 6.529 3.69 8.908 2.38 2.38 5.544 3.69 8.91 3.69 3.365 0 6.529-1.31 8.908-3.69 2.38-2.38 3.69-5.543 3.69-8.909 0-3.365-1.31-6.53-3.69-8.909zM12.6 23.707c-6.125 0-11.108-4.983-11.108-11.108 0-6.125 4.983-11.108 11.108-11.108 6.125 0 11.108 4.983 11.108 11.108 0 6.125-4.983 11.108-11.108 11.108z"/>
    <path fill="#D8CDBA" d="M12.599 2.473l-.082.001-.021-.001-.035.002c-5.505.074-9.963 4.562-9.988 10.079v.045c0 5.584 4.542 10.126 10.126 10.126S22.725 18.183 22.725 12.6c0-5.583-4.542-10.126-10.126-10.126zm.745 18.729v-.945c0-.412-.333-.746-.745-.746s-.746.334-.746.746v.945c-4.179-.36-7.517-3.708-7.86-7.891h.811c.412 0 .746-.334.746-.746s-.334-.745-.746-.745h-.805c.37-4.118 3.643-7.412 7.751-7.814v.764c0 .412.334.746.746.746s.745-.334.745-.746v-.782c4.17.308 7.526 3.59 7.948 7.729h-.898c-.412 0-.746.333-.746.745s.334.746.746.746h.921c-.296 4.231-3.654 7.632-7.867 7.994z"/>
    <path fill="#D8CDBA" d="M15.622 9.581c-.29-.29-.763-.29-1.054 0l-1.963 1.964-3.809-3.808c-.291-.292-.763-.292-1.054 0-.291.29-.291.763 0 1.054l4.335 4.335c.14.14.33.219.527.219.198 0 .388-.079.528-.219l2.49-2.49c.292-.291.292-.764 0-1.055z"/>
</svg>
