<svg xmlns="http://www.w3.org/2000/svg" width="28" height="28" fill="none" viewBox="0 0 28 28">
    <path fill="#D8CDBA" d="M25.2 0H2.8C1.26 0 0 1.26 0 2.8v22.4C0 26.74 1.26 28 2.8 28h22.4c1.54 0 2.8-1.26 2.8-2.8V2.8C28 1.26 26.74 0 25.2 0zm-9.8 19.88c-1.12 0-2.24-.42-2.94-1.26l-1.4 4.48-.14.28c-.28.42-.7.7-1.26.7-.84 0-1.54-.7-1.54-1.54v-.14l.14-.28 2.52-7.84s-.28-.84-.28-2.1c0-2.38 1.26-3.08 2.38-3.08.98 0 1.96.42 1.96 1.82 0 1.82-1.26 2.8-1.26 4.2 0 .98.84 1.82 1.82 1.82 3.22 0 4.48-2.52 4.48-4.76 0-3.08-2.66-5.6-5.88-5.6-3.22 0-5.88 2.52-5.88 5.6 0 .98.28 1.82.7 2.66.14.28.14.42.14.7 0 .84-.56 1.4-1.4 1.4-.56 0-.98-.28-1.26-.7-.7-1.26-1.12-2.66-1.12-4.2 0-4.62 3.92-8.4 8.68-8.4s8.68 3.78 8.68 8.4c.14 3.92-2.1 7.84-7.14 7.84z"/>
</svg>
