<svg xmlns="http://www.w3.org/2000/svg" width="34" height="34" fill="none" viewBox="0 0 34 34">
    <path fill="#C42126" d="M33.926 18.59H.078h33.848zM32.16 9.31H1.84h30.32zM33.364 12.403H.633h32.731zM7.306 30.962h19.387H7.306zM17.002 0c-.334 0-.665.012-.994.03h1.988c-.33-.018-.66-.03-.994-.03zM33.93 15.496H.07h33.86z"/>
    <path fill="#E7E7E7" d="M22.023 6.217h8.118c-.964-1.174-2.085-2.213-3.327-3.093H20.72c.504.888.938 1.935 1.304 3.093z"/>
    <path fill="#DC3027" d="M20.718 3.124h6.096C24.294 1.338 21.268.22 17.992.031h-.523c1.542.194 2.25 1.335 3.25 3.093z"/>
    <path fill="#E7E7E7" d="M33.365 12.403c-.302-1.078-.708-2.112-1.206-3.093H22.82c.19.993.339 2.03.45 3.093h10.095z"/>
    <path fill="#DC3027" d="M22.298 9.31h9.864c-.562-1.106-1.237-2.143-2.018-3.093h-8.617c.304.962.562 2 .771 3.093z"/>
    <path fill="#E7E7E7" d="M23.629 18.59h10.295c.05-.524.077-1.054.077-1.59 0-.507-.027-1.007-.07-1.503h-10.3c.034 1.028.033 2.064-.002 3.092z"/>
    <path fill="#DC3027" d="M33.93 15.496c-.094-1.062-.285-2.096-.565-3.093h-10.53c.107 1.013.177 2.05.21 3.093H33.93z"/>
    <path fill="#E7E7E7" d="M22.645 24.776h9.472c.505-.98.916-2.015 1.225-3.093h-10.24c-.112 1.064-.265 2.1-.457 3.093z"/>
    <path fill="#DC3027" d="M33.34 21.682c.286-.996.484-2.03.582-3.092H23.306c-.036 1.044-.108 2.08-.216 3.092h10.25z"/>
    <path fill="#E7E7E7" d="M26.695 30.961c1.26-.876 2.396-1.916 3.376-3.092h-7.976c-.373 1.163-.816 2.208-1.33 3.092h5.93z"/>
    <path fill="#DC3027" d="M21.793 27.869h8.276c.79-.95 1.476-1.987 2.046-3.093h-9.542c-.212 1.094-.472 2.132-.78 3.093zM16.384 33.988l-.103-.004.103.004zM17 34c3.604 0 6.944-1.125 9.694-3.037H20.54C19.45 32.843 18.73 34 17 34z"/>
    <path fill="#C42126" d="M16.999 34c-.207 0-.412-.005-.616-.012.207.007.412.012.616.012z"/>
    <path fill="#F3F4F5" d="M21.285 3.124H7.186c-1.242.88-2.362 1.919-3.327 3.093h18.73c-.367-1.158-.8-2.205-1.304-3.093z"/>
    <path fill="#E73625" d="M7.184 3.124h14.098c-1-1.758-2.27-2.9-3.812-3.093h-1.465c-3.276.19-6.302 1.307-8.821 3.093z"/>
    <path fill="#F3F4F5" d="M.633 12.403h23.172c-.11-1.063-.26-2.1-.449-3.093H1.84c-.499.98-.904 2.015-1.206 3.093z"/>
    <path fill="#E73625" d="M3.858 6.217c-.78.95-1.456 1.987-2.018 3.093h21.517c-.209-1.094-.466-2.131-.77-3.093H3.857z"/>
    <path fill="#F3F4F5" d="M0 17c0 .536.028 1.066.077 1.59h23.937c.036-1.029.036-2.065.003-3.093H.07C.027 15.993 0 16.493 0 17z"/>
    <path fill="#E73625" d="M.07 15.496h23.947c-.035-1.044-.105-2.08-.21-3.093H.634c-.28.998-.47 2.03-.564 3.093z"/>
    <path fill="#F3F4F5" d="M23.8 21.682H.66c.309 1.08.72 2.114 1.226 3.093h21.456c.192-.991.345-2.028.458-3.093z"/>
    <path fill="#E73625" d="M.66 21.682H23.8c.107-1.012.18-2.048.216-3.092H.078c.099 1.063.297 2.096.582 3.092z"/>
    <path fill="#F3F4F5" d="M7.305 30.961h13.926c.513-.884.956-1.93 1.329-3.092H3.93c.98 1.176 2.115 2.216 3.375 3.092z"/>
    <path fill="#E73625" d="M1.883 24.776c.57 1.106 1.256 2.144 2.045 3.093h18.63c.308-.96.569-1.999.78-3.093H1.884zM16.279 33.984l.103.004c.204.007.41.012.616.012 1.729 0 3.139-1.156 4.23-3.038H7.306c2.566 1.785 5.646 2.883 8.974 3.022z"/>
    <path fill="#283991" d="M16.646.009C7.935.186.834 6.912.07 15.469h16.577V.008z"/>
    <path fill="#EFEFEF" d="M3.399 9.632l.259.797h.839l-.679.493.26.798-.68-.493-.677.493.258-.798-.678-.493h.839l.259-.797zM3.399 12.45l.259.797h.839l-.679.493.26.798-.68-.493-.677.493.258-.798-.678-.493h.839l.259-.798zM6.22 5.405l.259.797h.838l-.678.494.259.797L6.22 7l-.68.493.26-.797-.679-.494h.84l.259-.797zM6.22 8.223l.259.797h.838l-.678.493.259.798-.678-.493-.68.493.26-.798-.679-.493h.84l.259-.797zM6.22 11.04l.259.799h.838l-.678.492.259.798-.678-.493-.68.493.26-.798-.679-.492h.84l.259-.799zM1.26 13.13l-.259-.799.679-.493H.84l-.019-.058c-.092.285-.175.573-.252.865l.012-.01.678.494zM2.723 8.903l.678-.494.679.494-.26-.798.68-.494h-.84l-.259-.797-.259.797h-.31c-.057.087-.112.175-.168.263l.318.23-.259.799zM6.218 4.183l.679.492-.26-.797.679-.493H6.83c-.411.307-.808.633-1.19.976l-.102.314.68-.492zM8.355 3.267l.68-.494.677.494-.259-.798.679-.493h-.84l-.034-.108c-.285.146-.566.297-.84.458l.196.143-.259.798zM9.036 3.996l.259.797h.839l-.679.494.26.798-.68-.494-.678.494.26-.798-.68-.494h.84l.259-.797zM9.036 6.814l.259.797h.839l-.679.493.26.799-.68-.494-.678.494.26-.799-.68-.493h.84l.259-.797zM9.036 9.632l.259.797h.839l-.679.493.26.798-.68-.493-.678.493.26-.798-.68-.493h.84l.259-.797zM9.036 12.45l.259.797h.839l-.679.493.26.798-.68-.493-.678.493.26-.798-.68-.493h.84l.259-.798zM11.852 2.587l.26.798h.838l-.678.493.259.797-.679-.492-.678.492.259-.797-.68-.493h.84l.26-.798zM11.852 5.405l.26.797h.838l-.678.494.259.797L11.852 7l-.678.493.259-.797-.68-.494h.84l.26-.797zM11.852 8.223l.26.797h.838l-.678.493.259.798-.679-.493-.678.493.259-.798-.68-.493h.84l.26-.797zM11.852 11.04l.26.799h.838l-.678.492.259.798-.679-.493-.678.493.259-.798-.68-.492h.84l.26-.799zM14.673 1.178l.259.798h.838l-.678.493.259.798-.678-.494-.68.494.26-.798-.679-.493h.839l.26-.798zM14.673 3.996l.259.797h.838l-.678.494.259.798-.678-.494-.68.494.26-.798-.679-.494h.839l.26-.797zM14.673 6.814l.259.797h.838l-.678.493.259.799-.678-.494-.68.494.26-.799-.679-.493h.839l.26-.797zM14.673 9.632l.259.797h.838l-.678.493.259.798-.678-.493-.68.493.26-.798-.679-.493h.839l.26-.797zM14.673 12.45l.259.797h.838l-.678.493.259.798-.678-.493-.68.493.26-.798-.679-.493h.839l.26-.798z"/>
</svg>
