<svg xmlns="http://www.w3.org/2000/svg" width="29" height="29" fill="none" viewBox="0 0 29 29">
    <path fill="#E61E25" d="M18.669.953l-1.634 4.53c1.508 4.977 1.508 12.363 0 17.34l1.634 4.53C24.105 25.43 28 20.246 28 14.152c0-6.095-3.896-11.277-9.332-13.2z"/>
    <path fill="#E4E4E4" d="M18.667 5.483V.953c-1.46-.516-3.03-.8-4.667-.8 2.159 0-.834 7.317 4.667 5.33zM14 28.152c1.636 0 3.207-.283 4.667-.8v-4.529c-5.447-.544-4.668 5.33-4.668 5.33z"/>
    <path fill="#3757A6" d="M0 14.153c0 6.115 3.922 11.31 9.387 13.218V.935C3.922 2.842 0 8.038 0 14.153z"/>
    <path fill="#EF4F4E" d="M18.668 5.483v17.34c1.508-4.977 1.508-12.363 0-17.34z"/>
    <path fill="#F3F4F5" d="M18.667 22.823V5.483c-.954-3.146-2.509-5.33-4.668-5.33-1.617 0-3.168.278-4.612.782v26.436c1.444.504 2.995.781 4.612.781 2.159 0 3.714-2.183 4.668-5.329z"/>
</svg>
