<svg xmlns="http://www.w3.org/2000/svg" width="29" height="28" fill="none" viewBox="0 0 29 28">
    <path fill="#fff" d="M14.003 27.999C21.734 27.999 28 21.73 28 14c0-7.731-6.267-13.999-13.998-13.999C6.27.001.003 6.27.003 14c0 7.731 6.268 13.999 14 13.999z"/>
    <path fill="#2B479D" d="M27.196 9.332H18.57c.375 2.99.377 6.285.008 9.28h8.636c.504-1.445.782-2.996.782-4.612 0-1.638-.284-3.208-.8-4.668z"/>
    <path fill="#EFECEC" d="M18.575 9.332H27.2l-.005-.013C25.404 4.268 20.795.551 15.258.057c2.143 1.175 2.769 4.896 3.317 9.275z"/>
    <path fill="#E63026" d="M15.258 27.94c5.547-.494 10.162-4.223 11.947-9.289l.013-.04h-8.636c-.544 4.402-1.173 8.15-3.324 9.33z"/>
    <path fill="#3757A6" d="M0 14c0 1.616.278 3.167.781 4.611h18.52c.37-2.994.367-6.289-.007-9.28H.8C.284 10.792 0 12.363 0 14z"/>
    <path fill="#EFEFEF" d="M.805 9.32l-.004.012h18.494c-.548-4.378-1.895-8.1-4.038-9.275C14.844.021 14.425 0 14 0 7.91 0 2.731 3.89.805 9.32z"/>
    <path fill="#E73B36" d="M19.3 18.611H.782l.014.04C2.713 24.095 7.899 28 13.999 28c.424 0 .843-.021 1.258-.058 2.151-1.18 3.5-4.928 4.044-9.33z"/>
</svg>
