<svg xmlns="http://www.w3.org/2000/svg" width="28" height="29" fill="none" viewBox="0 0 28 29">
    <path fill="#C42126" d="M13.996 28.652c4.48 0 8.464-2.106 11.027-5.379h-7.374c-.952 3.173-1.483 5.379-3.653 5.379zM13.17 28.628h-.01.01zM17.65 6.03h7.373C22.46 2.758 18.476.652 13.996.652c2.17 0 2.701 2.205 3.653 5.378zM13.16.677h.01-.01z"/>
    <path fill="#FFC40C" d="M25.026 6.03h-7.374c1.488 4.96 1.488 12.284 0 17.243h7.374C26.887 20.896 28 17.905 28 14.652s-1.113-6.245-2.974-8.622z"/>
    <path fill="#D32030" d="M18.69 23.273H2.98c2.402 3.068 6.053 5.11 10.189 5.354h.007c.275.017.552.025.83.025 2.17 0 3.731-2.206 4.683-5.379zM2.98 6.03h15.71C17.736 2.857 16.175.652 14.006.652c-.279 0-.556.008-.83.024h-.008C9.033.921 5.382 2.963 2.98 6.03z"/>
    <path fill="#FFD034" d="M0 14.652c0 3.253 1.113 6.244 2.974 8.621h15.709c1.488-4.96 1.488-12.283 0-17.243H2.973C1.114 8.407 0 11.4 0 14.652z"/>
</svg>
