<svg xmlns="http://www.w3.org/2000/svg" width="33.18" height="35.5" viewBox="0 0 33.18 35.5">
    <defs>
        <style>
            .prefix__cls-1{fill:#352f4a;stroke:#f4eee4;stroke-width:.5px}
        </style>
    </defs>
    <g id="prefix__Group_1202" data-name="Group 1202" transform="translate(-16.714 .25)">
        <g id="prefix__Group_1201" data-name="Group 1201" transform="translate(16.964)">
            <g id="prefix__Group_1200" data-name="Group 1200">
                <path id="prefix__Path_13836" d="M307.1 171.055a.583.583 0 00.584.584h5.836a.584.584 0 000-1.167h-5.836a.583.583 0 00-.584.583z" class="prefix__cls-1" data-name="Path 13836" transform="translate(-287.257 -158.813)"/>
                <path id="prefix__Path_13837" d="M358.3 222.255a.583.583 0 00.584.584h3.5a.584.584 0 100-1.167h-3.5a.583.583 0 00-.584.583z" class="prefix__cls-1" data-name="Path 13837" transform="translate(-334.955 -206.512)"/>
                <path id="prefix__Path_13838" d="M325.915 120.438a.584.584 0 000-1.167h-1.167a.584.584 0 100 1.167z" class="prefix__cls-1" data-name="Path 13838" transform="translate(-303.156 -111.114)"/>
                <path id="prefix__Path_13839" d="M239.415 221.67a.584.584 0 100 1.167h5.836a.584.584 0 000-1.167z" class="prefix__cls-1" data-name="Path 13839" transform="translate(-223.658 -206.511)"/>
                <path id="prefix__Path_13840" d="M67.438 63.115H56.35a1.753 1.753 0 01-1.75-1.75V34.521a.583.583 0 00-.584-.584 2.921 2.921 0 00-2.916 2.918.584.584 0 101.167 0 1.754 1.754 0 011.165-1.655v26.165a2.921 2.921 0 002.918 2.918h11.088a.584.584 0 000-1.167z" class="prefix__cls-1" data-name="Path 13840" transform="translate(-48.764 -31.616)"/>
                <path id="prefix__Path_13841" d="M154.082 171.638h8.17a.584.584 0 100-1.167h-8.17a.584.584 0 100 1.167z" class="prefix__cls-1" data-name="Path 13841" transform="translate(-144.161 -158.813)"/>
                <path id="prefix__Path_13842" d="M154.082 120.438h2.334a.584.584 0 100-1.167h-2.334a.584.584 0 100 1.167z" class="prefix__cls-1" data-name="Path 13842" transform="translate(-144.161 -111.114)"/>
                <path id="prefix__Path_13843" d="M227.016 119.27h-4.669a.584.584 0 000 1.167h4.669a.584.584 0 000-1.167z" class="prefix__cls-1" data-name="Path 13843" transform="translate(-207.758 -111.114)"/>
                <path id="prefix__Path_13844" d="M44.392 0H22.216a5.258 5.258 0 00-5.252 5.232v.027a5.273 5.273 0 002.625 4.529.583.583 0 00.585-1.01 4.077 4.077 0 012.042-7.611h22.176a4.09 4.09 0 014.085 4.085v24.51a1.7 1.7 0 01-.239.858.584.584 0 001.006.592 2.862 2.862 0 00.4-1.45V5.252A5.258 5.258 0 0044.392 0z" class="prefix__cls-1" data-name="Path 13844" transform="translate(-16.964)"/>
                <path id="prefix__Path_13845" d="M348.234 344.638a3.5 3.5 0 10-3.5 3.5 3.5 3.5 0 003.5-3.5zm-3.5 2.334a2.334 2.334 0 112.334-2.334 2.337 2.337 0 01-2.336 2.335z" class="prefix__cls-1" data-name="Path 13845" transform="translate(-319.055 -317.808)"/>
                <path id="prefix__Path_13846" d="M314.007 434.64a.584.584 0 00-.8.214l-1.256 2.177-.2-.3a.581.581 0 00-.452-.261l-.361-.022 1.277-2.212a.584.584 0 00-1.011-.584l-1.749 3.029a.584.584 0 00.471.874l1.011.061.558.846a.583.583 0 00.487.262H312a.587.587 0 00.488-.292l1.729-2.995a.583.583 0 00-.21-.797z" class="prefix__cls-1" data-name="Path 13846" transform="translate(-289.384 -403.724)"/>
                <path id="prefix__Path_13847" d="M406.761 434.053a.584.584 0 00-1.011.584l1.262 2.184-.361.022a.586.586 0 00-.452.261l-.2.3-1.25-2.166a.584.584 0 00-1.011.584l1.723 2.984a.586.586 0 00.488.292h.018a.585.585 0 00.487-.262l.558-.845 1.011-.061a.584.584 0 00.471-.874z" class="prefix__cls-1" data-name="Path 13847" transform="translate(-377.216 -404.097)"/>
                <path id="prefix__Path_13848" d="M154.082 222.838h3.5a.584.584 0 100-1.167h-3.5a.584.584 0 000 1.167z" class="prefix__cls-1" data-name="Path 13848" transform="translate(-144.161 -206.512)"/>
                <path id="prefix__Path_13849" d="M154.082 274.038h7a.584.584 0 100-1.167h-7a.584.584 0 100 1.167z" class="prefix__cls-1" data-name="Path 13849" transform="translate(-144.161 -254.21)"/>
                <path id="prefix__Path_13850" d="M153.84 329a.583.583 0 101.043-.522 3.1 3.1 0 01-.348-2.774 1.078 1.078 0 01.993-.467.473.473 0 01.448.189c.435.627.022 2.536-.411 3.691a.584.584 0 00.959.617c.249-.249.519-.5.755-.7v.285a.584.584 0 001 .413 7.293 7.293 0 01.836-.715l-.021.042a.584.584 0 00.523.844h2.334a.584.584 0 000-1.167h-1.519a1.127 1.127 0 00-.105-.788.812.812 0 00-.71-.379 2.272 2.272 0 00-1.172.491.674.674 0 00-.409-.558c-.156-.064-.357-.148-.844.144a4.038 4.038 0 00-.253-2.887 1.62 1.62 0 00-1.407-.692 2.228 2.228 0 00-1.986 1.021c-.585.946-.478 2.37.294 3.912z" class="prefix__cls-1" data-name="Path 13850" transform="translate(-143.857 -301.909)"/>
                <path id="prefix__Path_13851" d="M297.035 273.455a.583.583 0 00-.584-.584h-5.836a.584.584 0 100 1.167h5.836a.583.583 0 00.584-.583z" class="prefix__cls-1" data-name="Path 13851" transform="translate(-271.358 -254.21)"/>
            </g>
        </g>
    </g>
</svg>
