<svg xmlns="http://www.w3.org/2000/svg" width="12.163" height="16.15" viewBox="0 0 12.163 16.15">
    <defs>
        <style>
            .cls-1{fill:#575077;stroke:#585077;stroke-width:.2px}
        </style>
    </defs>
    <g id="pin-2" transform="translate(.1 .1)">
        <g id="Group_581" data-name="Group 581">
            <g id="Group_580" data-name="Group 580">
                <path id="Path_357" d="M69.981 0A5.988 5.988 0 0 0 64 5.981c0 4.413 5.519 9.657 5.754 9.879a.333.333 0 0 0 .456 0c.235-.221 5.753-5.466 5.753-9.879A5.988 5.988 0 0 0 69.981 0zm0 15.153c-1.044-1.043-5.317-5.532-5.317-9.172a5.317 5.317 0 0 1 10.633 0c.003 3.64-4.271 8.129-5.316 9.172z" class="cls-1" data-name="Path 357" transform="translate(-64)"/>
                <path id="Path_358" d="M152.656 85.333a3.323 3.323 0 1 0 3.323 3.323 3.327 3.327 0 0 0-3.323-3.323zm0 5.981a2.658 2.658 0 1 1 2.658-2.658 2.661 2.661 0 0 1-2.658 2.658z" class="cls-1" data-name="Path 358" transform="translate(-146.675 -82.675)"/>
            </g>
        </g>
    </g>
</svg>
