<svg xmlns="http://www.w3.org/2000/svg" width="48" height="51" fill="none" viewBox="0 0 48 51">
    <g clip-path="url(#prefix__clip0)">
        <path fill="#fff" d="M91.726 9.334H11.228V4.125c0-1.307 1.06-2.367 2.368-2.367H89.36c1.307 0 2.368 1.06 2.368 2.367v5.209zM94.094 16.91H8.861v-5.208c0-1.308 1.06-2.368 2.368-2.368h80.498c1.307 0 2.367 1.06 2.367 2.368v5.208zM37.197 34.023l-14.34-14.34c.18-.404.352-.81.515-1.22h-61.56c1.616 4.054 4.06 7.852 7.336 11.128 6.26 6.26 14.584 9.708 23.437 9.708 4.68 0 9.293-.987 13.527-2.878l12.821 12.822h18.263v-15.22z"/>
        <g clip-path="url(#prefix__clip1)">
            <path fill="#FAFAFA" d="M32.46 87.464H6.493V19.278c0-1.308.306-2.368.684-2.368h24.601c.378 0 .684 1.06.684 2.368v68.186z"/>
        </g>
        <path fill="#fff" d="M-7.413 34.564c15.69 0 28.411-12.72 28.411-28.41 0-15.692-12.72-28.412-28.411-28.412S-35.824-9.538-35.824 6.153s12.72 28.411 28.41 28.411z"/>
        <path fill="#F5F5F5" d="M-7.413 26.988c11.506 0 20.834-9.328 20.834-20.835 0-11.507-9.328-20.835-20.834-20.835-11.507 0-20.835 9.328-20.835 20.835 0 11.507 9.328 20.835 20.835 20.835z"/>
        <g fill="#585077" fill-rule="evenodd" clip-path="url(#prefix__clip2)" clip-rule="evenodd">
            <path d="M2.766 27.907c.414 0 .749-.334.749-.747V8.193c0-.143.116-.259.26-.259h36.3c.143 0 .26.116.26.259v9.006c0 .412.335.747.748.747.414 0 .749-.335.749-.747V8.193c0-.7-.413-1.303-1.009-1.584V4.973c0-.7-.413-1.302-1.008-1.584V1.753C39.815.787 39.027 0 38.058 0H5.791c-.969 0-1.757.787-1.757 1.753V3.39c-.595.282-1.008.885-1.008 1.584V6.61c-.595.28-1.008.884-1.008 1.583V27.16c0 .413.335.747.748.747zM4.523 4.973c0-.143.116-.259.26-.259h34.283c.144 0 .26.116.26.26V6.44H4.523V4.973zm1.009-3.22c0-.143.116-.259.26-.259h32.266c.144 0 .26.116.26.26V3.22H5.532V1.753z"/>
            <path d="M30.904 25.152c-1.817-1.814-4.233-2.813-6.803-2.813-2.57 0-4.987 1-6.804 2.813-1.818 1.813-2.819 4.224-2.819 6.79 0 2.564 1.001 4.975 2.819 6.789 1.817 1.813 4.233 2.812 6.804 2.812 2.57 0 4.986-.999 6.803-2.812 1.818-1.814 2.819-4.225 2.819-6.79 0-2.564-1.001-4.976-2.819-6.79zm-1.059 12.522c-1.534 1.532-3.575 2.375-5.745 2.375s-4.21-.843-5.745-2.375c-1.535-1.531-2.38-3.567-2.38-5.733 0-2.166.845-4.201 2.38-5.733 1.535-1.531 3.575-2.375 5.745-2.375s4.21.844 5.745 2.375c1.535 1.532 2.38 3.567 2.38 5.733 0 2.166-.845 4.202-2.38 5.733z"/>
            <path d="M47.259 49.726l-3.41-3.403v-9.15c0-.412-.336-.746-.75-.746h-1.267V20.686c0-.413-.336-.747-.749-.747s-.749.334-.749.747v15.74h-4.198c1.698-4.558.715-9.894-2.95-13.551-4.444-4.434-11.36-4.935-16.361-1.503V10.408c0-.413-.336-.747-.75-.747H5.993c-.413 0-.748.334-.748.747v12.477c0 .413.335.747.748.747h8.322c-3.084 3.612-3.834 8.542-2.25 12.795h-8.55v-5.78c0-.412-.334-.747-.748-.747-.413 0-.749.335-.749.747v5.78H.75c-.2 0-.391.08-.532.22-.14.142-.219.334-.217.533l.112 13.081c.003.41.337.74.748.74h4.448c.414 0 .75-.334.75-.746 0-.413-.336-.748-.75-.748H1.603l-.1-11.586h11.23c.586 1.11 1.346 2.154 2.281 3.087 2.505 2.5 5.796 3.75 9.086 3.75 2.07 0 4.142-.496 6.017-1.487l2.152 2.148c.14.14.331.219.53.219.198 0 .389-.079.529-.219l.326-.325 1.508 1.505-.326.325c-.292.292-.292.765 0 1.056l1.53 1.528H8.802c-.413 0-.748.334-.748.747 0 .412.335.747.748.747H38.175c.191 0 .382-.074.528-.22.292-.29.292-.764 0-1.056l-2.279-2.273 3.22-3.213 6.556 6.543c.146.146.338.219.53.219.191 0 .383-.073.529-.219.292-.292.292-.765 0-1.057zM6.741 11.155h8.586v10.983H6.741V11.155zm9.332 28.796c-4.426-4.416-4.426-11.603 0-16.02 2.213-2.208 5.12-3.312 8.027-3.312 2.907 0 5.814 1.104 8.027 3.312 4.425 4.417 4.425 11.604 0 16.02-4.426 4.417-11.628 4.417-16.054 0zm15.36 2.52c.617-.427 1.204-.915 1.753-1.463.549-.548 1.038-1.134 1.467-1.75l1.365 1.364-3.219 3.212-1.366-1.363zm3.28 1.567l1.508-1.505 1.508 1.505-1.508 1.504-1.508-1.505zm4.4-1.382l-.325.325-1.508-1.505.326-.325c.14-.14.22-.33.22-.529 0-.198-.08-.388-.22-.528l-2.153-2.148.014-.025h6.884v6.908l-2.178-2.173c-.293-.292-.767-.292-1.06 0z"/>
        </g>
    </g>
    <defs>
        <clipPath id="prefix__clip0">
            <path fill="#fff" d="M0 0H47.09V50.69H0z"/>
        </clipPath>
        <clipPath id="prefix__clip1">
            <path fill="#fff" d="M0 0H25.968V70.554H0z" transform="translate(6.492 16.91)"/>
        </clipPath>
        <clipPath id="prefix__clip2">
            <path fill="#fff" d="M0 0H47.478V51.001H0z"/>
        </clipPath>
    </defs>
</svg>
