<svg xmlns="http://www.w3.org/2000/svg" width="111.478" height="120.001" viewBox="0 0 111.478 120.001">
    <defs>
        <style>
            .prefix__cls-1{fill:#fff}.prefix__cls-2{fill:#d8cdba}.prefix__cls-5{fill:#eaeaea}.prefix__cls-11{fill:#585077}
        </style>
    </defs>
    <g id="prefix__search_2_" data-name="search (2)" transform="translate(-18.181)">
        <g id="prefix__Group_3276" data-name="Group 3276" transform="translate(29.41 1.758)">
            <path id="prefix__Path_18453" d="M146.589 15.076h-80.5V9.868a2.368 2.368 0 0 1 2.37-2.368h75.763a2.368 2.368 0 0 1 2.368 2.368v5.209z" class="prefix__cls-1" data-name="Path 18453" transform="translate(-66.091 -7.5)"/>
        </g>
        <g id="prefix__Group_3277" data-name="Group 3277" transform="translate(27.042 9.334)">
            <path id="prefix__Path_18454" d="M141.222 47.4H55.989v-5.207a2.368 2.368 0 0 1 2.368-2.368h80.5a2.368 2.368 0 0 1 2.368 2.368z" class="prefix__cls-1" data-name="Path 18454" transform="translate(-55.989 -39.825)"/>
        </g>
        <g id="prefix__Group_3278" data-name="Group 3278" transform="translate(19.939 87.464)">
            <path id="prefix__Path_18455" d="M125.123 403.958H25.946l-.262-30.779h99.439z" class="prefix__cls-2" data-name="Path 18455" transform="translate(-25.684 -373.179)"/>
        </g>
        <g id="prefix__Group_3279" data-name="Group 3279" transform="translate(43.994 87.464)">
            <path id="prefix__Path_18456" d="M203.7 388.738L189.36 374.4q.271-.605.516-1.218h-61.56a33.163 33.163 0 0 0 44.3 17.957l12.821 12.821H203.7v-15.22z" class="prefix__cls-1" data-name="Path 18456" transform="translate(-128.316 -373.179)"/>
        </g>
        <g id="prefix__Group_3280" data-name="Group 3280" transform="translate(24.674 16.91)">
            <path id="prefix__Path_18457" fill="#fafafa" d="M135.855 142.7H45.887V74.518a2.368 2.368 0 0 1 2.368-2.368h85.233a2.368 2.368 0 0 1 2.368 2.368V142.7z" data-name="Path 18457" transform="translate(-45.887 -72.15)"/>
        </g>
        <g id="prefix__Group_3281" data-name="Group 3281" transform="translate(32.251 24.487)">
            <path id="prefix__Path_18458" d="M0 0h29.358v23.676H0z" class="prefix__cls-2" data-name="Path 18458" transform="rotate(90 11.838 11.838)"/>
        </g>
        <g id="prefix__Group_3282" data-name="Group 3282" transform="translate(106.035 16.91)">
            <path id="prefix__Path_18459" fill="#efefef" d="M399.263 72.15h-6.24a2.368 2.368 0 0 1 2.368 2.368V142.7h6.24V74.518a2.368 2.368 0 0 0-2.368-2.368z" data-name="Path 18459" transform="translate(-393.023 -72.15)"/>
        </g>
        <g id="prefix__Group_3291" data-name="Group 3291" transform="translate(46.356 46.742)">
            <g id="prefix__Group_3283" data-name="Group 3283" transform="translate(42.791 42.808)">
                <path id="prefix__Path_18460" d="M0 0h14.206v8.523H0z" class="prefix__cls-5" data-name="Path 18460" transform="rotate(-45 12.123 5.021)"/>
            </g>
            <g id="prefix__Group_3284" data-name="Group 3284" transform="translate(50.825 50.844)">
                <path id="prefix__Path_18461" fill="#c9c9c9" d="M0 0h8.523v8.523H0z" data-name="Path 18461" transform="rotate(-45 7.274 3.013)"/>
            </g>
            <g id="prefix__Group_3285" data-name="Group 3285" transform="translate(54.862 54.862)">
                <path id="prefix__Path_18462" fill="#b3b3b3" d="M399.155 450.149h-20.09l-6.593-6.593 10.045-10.045z" data-name="Path 18462" transform="translate(-372.472 -433.511)"/>
            </g>
            <g id="prefix__Group_3286" data-name="Group 3286" transform="translate(61.559 54.862)">
                <path id="prefix__Path_18463" fill="#d6d6d6" d="M404.392 433.511l-3.348 3.348 13.29 13.29h6.7z" data-name="Path 18463" transform="translate(-401.044 -433.511)"/>
            </g>
            <g id="prefix__Group_3287" data-name="Group 3287">
                <circle id="prefix__Ellipse_598" cx="28.411" cy="28.411" r="28.411" class="prefix__cls-1" data-name="Ellipse 598"/>
            </g>
            <g id="prefix__Group_3288" data-name="Group 3288" transform="translate(5.784 5.784)">
                <path id="prefix__Path_18464" d="M202.88 224.113a28.411 28.411 0 0 1-39.808 39.808 28.411 28.411 0 1 0 39.808-39.808z" class="prefix__cls-5" data-name="Path 18464" transform="translate(-163.072 -224.113)"/>
            </g>
            <g id="prefix__Group_3289" data-name="Group 3289" transform="translate(7.576 7.576)">
                <circle id="prefix__Ellipse_599" cx="20.835" cy="20.835" r="20.835" fill="#f5f5f5" data-name="Ellipse 599"/>
            </g>
            <g id="prefix__Group_3290" data-name="Group 3290" transform="translate(11.805 11.804)">
                <path id="prefix__Path_18465" fill="#ededed" d="M217.948 249.8a20.835 20.835 0 0 1-29.188 29.188 20.835 20.835 0 1 0 29.188-29.188z" data-name="Path 18465" transform="translate(-188.76 -249.798)"/>
            </g>
        </g>
        <g id="prefix__Group_3292" data-name="Group 3292" transform="translate(18.181)">
            <path id="prefix__Path_18466" d="M40.148 65.663a1.758 1.758 0 0 0 1.758-1.758V19.277a.61.61 0 0 1 .608-.609h85.235a.61.61 0 0 1 .609.609v21.19a1.758 1.758 0 0 0 3.516 0v-21.19a4.126 4.126 0 0 0-2.368-3.727V11.7a4.127 4.127 0 0 0-2.368-3.727V4.125A4.13 4.13 0 0 0 123.013 0H47.25a4.13 4.13 0 0 0-4.125 4.125v3.85a4.127 4.127 0 0 0-2.368 3.725v3.85a4.126 4.126 0 0 0-2.367 3.726v44.629a1.758 1.758 0 0 0 1.758 1.758zM44.273 11.7a.61.61 0 0 1 .61-.61h80.5a.61.61 0 0 1 .61.61v3.451h-81.72zm2.367-7.575a.61.61 0 0 1 .61-.61h75.763a.61.61 0 0 1 .61.61v3.451H46.64z" class="prefix__cls-11" data-name="Path 18466" transform="translate(-33.653)"/>
            <path id="prefix__Path_18467" d="M201.788 230.876a22.593 22.593 0 1 0 6.617 15.975 22.444 22.444 0 0 0-6.617-15.975zm-2.488 29.465a19.077 19.077 0 1 1 5.588-13.49 18.953 18.953 0 0 1-5.588 13.49z" class="prefix__cls-11" data-name="Path 18467" transform="translate(-129.226 -171.698)"/>
            <path id="prefix__Path_18468" d="M129.144 191.247l-8.009-8.009v-21.526a1.758 1.758 0 0 0-1.758-1.758H116.4v-37.036a1.758 1.758 0 1 0-3.516 0v37.036h-9.858a30.168 30.168 0 0 0-45.342-35.422v-25.8a1.758 1.758 0 0 0-1.758-1.758H32.251a1.758 1.758 0 0 0-1.758 1.758v29.358a1.758 1.758 0 0 0 1.758 1.758h19.54a30.231 30.231 0 0 0-5.284 30.1H26.433v-13.6a1.758 1.758 0 1 0-3.516 0v13.6h-2.978a1.758 1.758 0 0 0-1.758 1.773l.263 30.778a1.758 1.758 0 0 0 1.758 1.743h10.443a1.758 1.758 0 0 0 0-3.516h-8.7l-.233-27.263h26.365a30.217 30.217 0 0 0 40.818 12.59l5.054 5.054a1.757 1.757 0 0 0 2.486 0l.766-.766 3.541 3.541-.766.766a1.758 1.758 0 0 0 0 2.486l3.593 3.593H38.848a1.758 1.758 0 0 0 0 3.516h68.967a1.758 1.758 0 0 0 1.239-3l-5.35-5.35 7.559-7.559 15.4 15.4a1.758 1.758 0 1 0 2.486-2.486zm-95.135-90.755h20.16v25.842h-20.16zm21.911 67.755a26.653 26.653 0 1 1 37.693 0 26.684 26.684 0 0 1-37.693 0zm36.065 5.93a30.363 30.363 0 0 0 7.559-7.559l3.207 3.206-7.559 7.559zm7.7 3.684l3.541-3.541 3.541 3.541-3.541 3.541zm10.334-3.252l-.766.766-3.541-3.541.766-.766a1.757 1.757 0 0 0 0-2.486l-5.054-5.054.032-.059h16.164v16.253l-5.114-5.114a1.758 1.758 0 0 0-2.486 0z" class="prefix__cls-11" data-name="Path 18468" transform="translate(-18.181 -74.247)"/>
            <path id="prefix__Path_18469" d="M250.922 96.976h-43.09a1.758 1.758 0 0 0 0 3.516h43.09a1.758 1.758 0 1 0 0-3.516z" class="prefix__cls-11" data-name="Path 18469" transform="translate(-162.036 -74.247)"/>
            <path id="prefix__Path_18470" d="M252.68 131.059a1.758 1.758 0 0 0-1.758-1.758h-43.09a1.758 1.758 0 0 0 0 3.516h43.09a1.758 1.758 0 0 0 1.758-1.758z" class="prefix__cls-11" data-name="Path 18470" transform="translate(-162.036 -98.996)"/>
            <path id="prefix__Path_18471" d="M207.833 161.626a1.758 1.758 0 0 0 0 3.516h28.885a1.758 1.758 0 0 0 0-3.516z" class="prefix__cls-11" data-name="Path 18471" transform="translate(-162.037 -123.745)"/>
        </g>
    </g>
</svg>
