<svg xmlns="http://www.w3.org/2000/svg" width="21.273" height="20.37" viewBox="0 0 21.273 20.37">
    <g id="prefix__Group_1279" data-name="Group 1279" transform="translate(-544.677 -697.209)">
        <path id="prefix__Path_13860" d="M571.631 715.373l1.807 3.661a.788.788 0 00.593.431l4.04.587a.788.788 0 01.437 1.344l-2.923 2.849a.787.787 0 00-.227.7l.69 4.023a.788.788 0 01-1.143.831l-3.613-1.9a.788.788 0 00-.733 0l-3.613 1.9a.788.788 0 01-1.143-.831l.69-4.023a.788.788 0 00-.227-.7l-2.923-2.849a.788.788 0 01.437-1.344l4.04-.587a.787.787 0 00.593-.431l1.807-3.661a.788.788 0 011.411 0z" data-name="Path 13860" transform="translate(-15.611 -15.017)" style="fill:#585077"/>
        <text id="prefix___5" data-name="5" transform="translate(553.233 710.729)" style="fill:#fff;font-size:7px;font-family:Lato-Regular,Lato">
            <tspan x="0" y="0">5</tspan>
        </text>
        <g id="prefix__Group_1278" data-name="Group 1278" transform="translate(544.677 697.209)">
            <path id="prefix__Path_13861" d="M549.614 717.579a1.418 1.418 0 01-1.393-1.656l.9-5.275a.652.652 0 00-.187-.576l-3.832-3.736a1.415 1.415 0 01.784-2.414l5.3-.77a.65.65 0 00.49-.356l2.369-4.8a1.415 1.415 0 012.538 0l2.369 4.8a.651.651 0 00.49.356l5.3.77a1.415 1.415 0 01.784 2.414l-3.833 3.736a.651.651 0 00-.187.576l.9 5.275a1.415 1.415 0 01-2.053 1.492l-4.737-2.49a.652.652 0 00-.606 0l-4.737 2.49a1.418 1.418 0 01-.659.164zm5.7-19.606a.639.639 0 00-.584.363l-2.368 4.8a1.415 1.415 0 01-1.066.774l-5.3.77a.651.651 0 00-.361 1.111l3.833 3.736a1.415 1.415 0 01.407 1.252l-.9 5.275a.651.651 0 00.945.686l4.737-2.491a1.415 1.415 0 011.317 0l4.737 2.491a.651.651 0 00.945-.686l-.9-5.275a1.414 1.414 0 01.407-1.252l3.832-3.736a.651.651 0 00-.361-1.111l-5.3-.77a1.414 1.414 0 01-1.066-.774l-2.369-4.8a.638.638 0 00-.585-.363z" data-name="Path 13861" transform="translate(-544.677 -697.209)" style="fill:#b3b3b3"/>
        </g>
    </g>
</svg>
